<svg width="372" height="144" viewBox="0 0 372 144" fill="none" xmlns="http://www.w3.org/2000/svg">
<g filter="url(#filter0_d)">
<path d="M298.155 21C324.01 21 344.969 41.9837 344.969 67.8685C344.969 93.7533 324.01 114.737 298.155 114.737H28.3502C25.3954 114.737 23.0001 112.339 23.0001 109.381V106.651C23.0001 105.207 23.5825 103.824 24.6152 102.816L33.4228 94.2185C34.4556 93.2104 35.038 91.8275 35.038 90.3834V67.409C35.038 67.3257 35.0397 67.2433 35.0432 67.1615C35.4207 41.6027 56.2332 21 81.8521 21H298.155Z" fill="white"/>
</g>
<path d="M76.457 52H74.549V42.361L68.168 52H66.26V39.04H68.168V48.67L74.549 39.04H76.457V52ZM78.069 52C78.765 52.15 79.323 52.168 79.743 52.054C80.163 51.94 80.487 51.694 80.715 51.316C80.949 50.938 81.126 50.425 81.246 49.777C81.336 49.339 81.417 48.796 81.489 48.148C81.567 47.494 81.639 46.807 81.705 46.087C81.771 45.367 81.828 44.689 81.876 44.053H85.278V52H87.168V42.28H80.184C80.106 43.624 80.019 44.872 79.923 46.024C79.827 47.176 79.704 48.163 79.554 48.985C79.458 49.543 79.32 49.945 79.14 50.191C78.96 50.431 78.603 50.503 78.069 50.407V52ZM97.8816 42.28H96.3606L91.4916 48.904V42.28H89.6826V52H91.2126L96.0726 45.241V52H97.8816V42.28ZM103.991 52H105.872V48.022H110.615V52H112.496V42.28H110.615V46.249H105.872V42.28H103.991V52ZM117.767 52.27C119.315 52.27 120.482 51.709 121.268 50.587V52H122.933V46.015C122.933 45.607 122.915 45.226 122.879 44.872C122.843 44.518 122.747 44.182 122.591 43.864C122.291 43.222 121.817 42.754 121.169 42.46C120.527 42.16 119.771 42.01 118.901 42.01C117.779 42.01 116.879 42.256 116.201 42.748C115.523 43.24 115.067 43.903 114.833 44.737L116.588 45.277C116.756 44.737 117.053 44.347 117.479 44.107C117.905 43.867 118.373 43.747 118.883 43.747C119.639 43.747 120.185 43.909 120.521 44.233C120.863 44.551 121.049 45.046 121.079 45.718C120.287 45.826 119.513 45.94 118.757 46.06C118.001 46.174 117.341 46.312 116.777 46.474C116.027 46.714 115.457 47.071 115.067 47.545C114.677 48.019 114.482 48.622 114.482 49.354C114.482 49.882 114.605 50.368 114.851 50.812C115.103 51.25 115.472 51.604 115.958 51.874C116.45 52.138 117.053 52.27 117.767 52.27ZM118.1 50.731C117.5 50.731 117.056 50.593 116.768 50.317C116.486 50.041 116.345 49.714 116.345 49.336C116.345 48.952 116.471 48.649 116.723 48.427C116.981 48.205 117.302 48.028 117.686 47.896C118.094 47.776 118.574 47.671 119.126 47.581C119.684 47.491 120.329 47.392 121.061 47.284C121.055 47.512 121.04 47.767 121.016 48.049C120.992 48.331 120.941 48.583 120.863 48.805C120.791 49.123 120.638 49.429 120.404 49.723C120.176 50.017 119.867 50.26 119.477 50.452C119.093 50.638 118.634 50.731 118.1 50.731ZM125.261 52H129.95C130.232 52 130.514 51.988 130.796 51.964C131.084 51.94 131.342 51.895 131.57 51.829C132.152 51.667 132.602 51.367 132.92 50.929C133.238 50.485 133.397 49.936 133.397 49.282C133.397 48.736 133.292 48.298 133.082 47.968C132.872 47.638 132.599 47.389 132.263 47.221C132.035 47.101 131.816 47.023 131.606 46.987C131.84 46.909 132.05 46.783 132.236 46.609C132.446 46.417 132.611 46.186 132.731 45.916C132.851 45.646 132.911 45.319 132.911 44.935C132.911 44.257 132.737 43.711 132.389 43.297C132.041 42.883 131.621 42.607 131.129 42.469C130.913 42.403 130.664 42.355 130.382 42.325C130.1 42.295 129.818 42.28 129.536 42.28H125.261V52ZM127.169 46.393V43.792H129.185C129.245 43.792 129.386 43.798 129.608 43.81C129.83 43.816 130.031 43.849 130.211 43.909C130.463 43.993 130.652 44.143 130.778 44.359C130.904 44.575 130.967 44.821 130.967 45.097C130.967 45.349 130.907 45.583 130.787 45.799C130.673 46.009 130.502 46.159 130.274 46.249C130.142 46.303 129.986 46.342 129.806 46.366C129.626 46.384 129.449 46.393 129.275 46.393H127.169ZM127.169 50.515V47.905H129.734C129.836 47.905 129.956 47.908 130.094 47.914C130.238 47.92 130.373 47.944 130.499 47.986C130.775 48.046 131.003 48.181 131.183 48.391C131.363 48.601 131.453 48.874 131.453 49.21C131.453 49.462 131.393 49.699 131.273 49.921C131.153 50.143 130.961 50.296 130.697 50.38C130.415 50.47 130.127 50.515 129.833 50.515H127.169ZM139.512 52.27C140.454 52.27 141.309 52.033 142.077 51.559C142.845 51.079 143.418 50.404 143.796 49.534L141.951 48.949C141.459 49.981 140.616 50.497 139.422 50.497C138.606 50.497 137.964 50.251 137.496 49.759C137.028 49.267 136.755 48.571 136.677 47.671H143.922C143.988 46.507 143.85 45.502 143.508 44.656C143.166 43.81 142.647 43.159 141.951 42.703C141.255 42.241 140.412 42.01 139.422 42.01C138.474 42.01 137.643 42.223 136.929 42.649C136.215 43.075 135.657 43.678 135.255 44.458C134.859 45.238 134.661 46.159 134.661 47.221C134.661 48.223 134.862 49.105 135.264 49.867C135.672 50.623 136.239 51.214 136.965 51.64C137.697 52.06 138.546 52.27 139.512 52.27ZM139.494 43.675C140.964 43.675 141.798 44.518 141.996 46.204H136.722C136.842 45.382 137.133 44.755 137.595 44.323C138.057 43.891 138.69 43.675 139.494 43.675ZM145.222 54.16H147.013V52H153.547V54.16H155.329V50.488H154.375V42.28H147.409C147.349 43.516 147.283 44.605 147.211 45.547C147.145 46.483 147.049 47.344 146.923 48.13C146.785 48.988 146.599 49.597 146.365 49.957C146.137 50.311 145.756 50.488 145.222 50.488V54.16ZM147.913 50.488C148.141 50.26 148.303 49.987 148.399 49.669C148.501 49.351 148.588 48.955 148.66 48.481C148.732 48.073 148.792 47.605 148.84 47.077C148.894 46.549 148.939 46 148.975 45.43C149.017 44.86 149.053 44.314 149.083 43.792H152.485V50.488H147.913ZM165.311 42.28H163.79L158.921 48.904V42.28H157.112V52H158.642L163.502 45.241V52H165.311V42.28ZM170.337 52H172.218V43.972H175.539V42.28H167.016V43.972H170.337V52ZM181.559 52.27C182.501 52.27 183.356 52.033 184.124 51.559C184.892 51.079 185.465 50.404 185.843 49.534L183.998 48.949C183.506 49.981 182.663 50.497 181.469 50.497C180.653 50.497 180.011 50.251 179.543 49.759C179.075 49.267 178.802 48.571 178.724 47.671H185.969C186.035 46.507 185.897 45.502 185.555 44.656C185.213 43.81 184.694 43.159 183.998 42.703C183.302 42.241 182.459 42.01 181.469 42.01C180.521 42.01 179.69 42.223 178.976 42.649C178.262 43.075 177.704 43.678 177.302 44.458C176.906 45.238 176.708 46.159 176.708 47.221C176.708 48.223 176.909 49.105 177.311 49.867C177.719 50.623 178.286 51.214 179.012 51.64C179.744 52.06 180.593 52.27 181.559 52.27ZM181.541 43.675C183.011 43.675 183.845 44.518 184.043 46.204H178.769C178.889 45.382 179.18 44.755 179.642 44.323C180.104 43.891 180.737 43.675 181.541 43.675ZM191.583 52H193.5V47.32L197.568 52H200.124L195.678 47.14L199.71 42.28H197.316L193.5 46.96V42.28H191.592L191.583 52ZM203.776 52.27C205.324 52.27 206.491 51.709 207.277 50.587V52H208.942V46.015C208.942 45.607 208.924 45.226 208.888 44.872C208.852 44.518 208.756 44.182 208.6 43.864C208.3 43.222 207.826 42.754 207.178 42.46C206.536 42.16 205.78 42.01 204.91 42.01C203.788 42.01 202.888 42.256 202.21 42.748C201.532 43.24 201.076 43.903 200.842 44.737L202.597 45.277C202.765 44.737 203.062 44.347 203.488 44.107C203.914 43.867 204.382 43.747 204.892 43.747C205.648 43.747 206.194 43.909 206.53 44.233C206.872 44.551 207.058 45.046 207.088 45.718C206.296 45.826 205.522 45.94 204.766 46.06C204.01 46.174 203.35 46.312 202.786 46.474C202.036 46.714 201.466 47.071 201.076 47.545C200.686 48.019 200.491 48.622 200.491 49.354C200.491 49.882 200.614 50.368 200.86 50.812C201.112 51.25 201.481 51.604 201.967 51.874C202.459 52.138 203.062 52.27 203.776 52.27ZM204.109 50.731C203.509 50.731 203.065 50.593 202.777 50.317C202.495 50.041 202.354 49.714 202.354 49.336C202.354 48.952 202.48 48.649 202.732 48.427C202.99 48.205 203.311 48.028 203.695 47.896C204.103 47.776 204.583 47.671 205.135 47.581C205.693 47.491 206.338 47.392 207.07 47.284C207.064 47.512 207.049 47.767 207.025 48.049C207.001 48.331 206.95 48.583 206.872 48.805C206.8 49.123 206.647 49.429 206.413 49.723C206.185 50.017 205.876 50.26 205.486 50.452C205.102 50.638 204.643 50.731 204.109 50.731ZM211.271 52H213.08V46.132L216.005 52H216.86L219.785 46.132V52H221.603V42.28H220.019L216.437 49.408L212.846 42.28H211.271V52ZM228.44 52.27C229.382 52.27 230.237 52.033 231.005 51.559C231.773 51.079 232.346 50.404 232.724 49.534L230.879 48.949C230.387 49.981 229.544 50.497 228.35 50.497C227.534 50.497 226.892 50.251 226.424 49.759C225.956 49.267 225.683 48.571 225.605 47.671H232.85C232.916 46.507 232.778 45.502 232.436 44.656C232.094 43.81 231.575 43.159 230.879 42.703C230.183 42.241 229.34 42.01 228.35 42.01C227.402 42.01 226.571 42.223 225.857 42.649C225.143 43.075 224.585 43.678 224.183 44.458C223.787 45.238 223.589 46.159 223.589 47.221C223.589 48.223 223.79 49.105 224.192 49.867C224.6 50.623 225.167 51.214 225.893 51.64C226.625 52.06 227.474 52.27 228.44 52.27ZM228.422 43.675C229.892 43.675 230.726 44.518 230.924 46.204H225.65C225.77 45.382 226.061 44.755 226.523 44.323C226.985 43.891 227.618 43.675 228.422 43.675ZM234.86 56.32H236.75V51.316C237.092 51.622 237.485 51.856 237.929 52.018C238.379 52.186 238.88 52.27 239.432 52.27C240.338 52.27 241.118 52.045 241.772 51.595C242.432 51.139 242.939 50.524 243.293 49.75C243.653 48.976 243.833 48.103 243.833 47.131C243.833 46.153 243.653 45.28 243.293 44.512C242.933 43.738 242.42 43.129 241.754 42.685C241.094 42.235 240.308 42.01 239.396 42.01C238.796 42.01 238.256 42.112 237.776 42.316C237.296 42.514 236.882 42.793 236.534 43.153V42.28H234.86V56.32ZM239.171 50.569C238.247 50.569 237.575 50.248 237.155 49.606C236.741 48.964 236.534 48.139 236.534 47.131C236.534 46.123 236.741 45.301 237.155 44.665C237.569 44.029 238.22 43.711 239.108 43.711C239.732 43.711 240.245 43.864 240.647 44.17C241.049 44.476 241.346 44.887 241.538 45.403C241.736 45.919 241.835 46.495 241.835 47.131C241.835 47.773 241.739 48.355 241.547 48.877C241.355 49.393 241.061 49.804 240.665 50.11C240.275 50.416 239.777 50.569 239.171 50.569ZM246.783 56.32H248.574L253.938 42.28H252.03L249.285 49.588L246.414 42.28H244.452L248.385 51.955L246.783 56.32ZM68.771 75H70.652V66.972H73.973V65.28H65.45V66.972H68.771V75ZM79.9929 75.27C80.9349 75.27 81.7899 75.033 82.5579 74.559C83.3259 74.079 83.8989 73.404 84.2769 72.534L82.4319 71.949C81.9399 72.981 81.0969 73.497 79.9029 73.497C79.0869 73.497 78.4449 73.251 77.9769 72.759C77.5089 72.267 77.2359 71.571 77.1579 70.671H84.4029C84.4689 69.507 84.3309 68.502 83.9889 67.656C83.6469 66.81 83.1279 66.159 82.4319 65.703C81.7359 65.241 80.8929 65.01 79.9029 65.01C78.9549 65.01 78.1239 65.223 77.4099 65.649C76.6959 66.075 76.1379 66.678 75.7359 67.458C75.3399 68.238 75.1419 69.159 75.1419 70.221C75.1419 71.223 75.3429 72.105 75.7449 72.867C76.1529 73.623 76.7199 74.214 77.4459 74.64C78.1779 75.06 79.0269 75.27 79.9929 75.27ZM79.9749 66.675C81.4449 66.675 82.2789 67.518 82.4769 69.204H77.2029C77.3229 68.382 77.6139 67.755 78.0759 67.323C78.5379 66.891 79.1709 66.675 79.9749 66.675ZM85.5221 75C86.2181 75.15 86.7761 75.168 87.1961 75.054C87.6161 74.94 87.9401 74.694 88.1681 74.316C88.4021 73.938 88.5791 73.425 88.6991 72.777C88.7891 72.339 88.8701 71.796 88.9421 71.148C89.0201 70.494 89.0921 69.807 89.1581 69.087C89.2241 68.367 89.2811 67.689 89.3291 67.053H92.7311V75H94.6211V65.28H87.6371C87.5591 66.624 87.4721 67.872 87.3761 69.024C87.2801 70.176 87.1571 71.163 87.0071 71.985C86.9111 72.543 86.7731 72.945 86.5931 73.191C86.4131 73.431 86.0561 73.503 85.5221 73.407V75ZM101.456 75.27C102.398 75.27 103.253 75.033 104.021 74.559C104.789 74.079 105.362 73.404 105.74 72.534L103.895 71.949C103.403 72.981 102.56 73.497 101.366 73.497C100.55 73.497 99.9078 73.251 99.4398 72.759C98.9718 72.267 98.6988 71.571 98.6208 70.671H105.866C105.932 69.507 105.794 68.502 105.452 67.656C105.11 66.81 104.591 66.159 103.895 65.703C103.199 65.241 102.356 65.01 101.366 65.01C100.418 65.01 99.5868 65.223 98.8728 65.649C98.1588 66.075 97.6008 66.678 97.1988 67.458C96.8028 68.238 96.6048 69.159 96.6048 70.221C96.6048 71.223 96.8058 72.105 97.2078 72.867C97.6158 73.623 98.1828 74.214 98.9088 74.64C99.6408 75.06 100.49 75.27 101.456 75.27ZM101.438 66.675C102.908 66.675 103.742 67.518 103.94 69.204H98.6658C98.7858 68.382 99.0768 67.755 99.5388 67.323C100.001 66.891 100.634 66.675 101.438 66.675ZM112.457 79.05H114.149V75.171C115.097 75.321 115.958 75.222 116.732 74.874C117.506 74.52 118.121 73.944 118.577 73.146C119.033 72.342 119.261 71.343 119.261 70.149C119.261 68.955 119.033 67.956 118.577 67.152C118.121 66.348 117.506 65.769 116.732 65.415C115.958 65.061 115.097 64.959 114.149 65.109V62.166H112.457V65.109C111.509 64.959 110.648 65.061 109.874 65.415C109.1 65.769 108.485 66.348 108.029 67.152C107.573 67.956 107.345 68.955 107.345 70.149C107.345 71.343 107.573 72.342 108.029 73.146C108.485 73.944 109.1 74.52 109.874 74.874C110.648 75.222 111.509 75.321 112.457 75.171V79.05ZM114.149 73.47V66.819C115.121 66.657 115.895 66.867 116.471 67.449C117.047 68.025 117.335 68.925 117.335 70.149C117.335 71.367 117.038 72.264 116.444 72.84C115.856 73.416 115.091 73.626 114.149 73.47ZM112.457 73.47C111.515 73.626 110.747 73.413 110.153 72.831C109.565 72.243 109.271 71.349 109.271 70.149C109.271 68.943 109.559 68.046 110.135 67.458C110.711 66.87 111.485 66.657 112.457 66.819V73.47ZM125.465 75.27C126.431 75.27 127.271 75.054 127.985 74.622C128.699 74.184 129.251 73.581 129.641 72.813C130.037 72.039 130.235 71.145 130.235 70.131C130.235 69.129 130.04 68.244 129.65 67.476C129.26 66.702 128.708 66.099 127.994 65.667C127.28 65.229 126.437 65.01 125.465 65.01C124.511 65.01 123.677 65.226 122.963 65.658C122.249 66.09 121.694 66.69 121.298 67.458C120.902 68.226 120.704 69.117 120.704 70.131C120.704 71.133 120.899 72.021 121.289 72.795C121.679 73.569 122.228 74.175 122.936 74.613C123.65 75.051 124.493 75.27 125.465 75.27ZM125.465 73.497C124.559 73.497 123.872 73.194 123.404 72.588C122.936 71.976 122.702 71.157 122.702 70.131C122.702 69.141 122.927 68.337 123.377 67.719C123.827 67.095 124.523 66.783 125.465 66.783C126.383 66.783 127.073 67.086 127.535 67.692C128.003 68.298 128.237 69.111 128.237 70.131C128.237 71.127 128.006 71.937 127.544 72.561C127.088 73.185 126.395 73.497 125.465 73.497ZM132.204 75H134.085V71.022H138.828V75H140.709V65.28H138.828V69.249H134.085V65.28H132.204V75ZM145.98 75.27C147.528 75.27 148.695 74.709 149.481 73.587V75H151.146V69.015C151.146 68.607 151.128 68.226 151.092 67.872C151.056 67.518 150.96 67.182 150.804 66.864C150.504 66.222 150.03 65.754 149.382 65.46C148.74 65.16 147.984 65.01 147.114 65.01C145.992 65.01 145.092 65.256 144.414 65.748C143.736 66.24 143.28 66.903 143.046 67.737L144.801 68.277C144.969 67.737 145.266 67.347 145.692 67.107C146.118 66.867 146.586 66.747 147.096 66.747C147.852 66.747 148.398 66.909 148.734 67.233C149.076 67.551 149.262 68.046 149.292 68.718C148.5 68.826 147.726 68.94 146.97 69.06C146.214 69.174 145.554 69.312 144.99 69.474C144.24 69.714 143.67 70.071 143.28 70.545C142.89 71.019 142.695 71.622 142.695 72.354C142.695 72.882 142.818 73.368 143.064 73.812C143.316 74.25 143.685 74.604 144.171 74.874C144.663 75.138 145.266 75.27 145.98 75.27ZM146.313 73.731C145.713 73.731 145.269 73.593 144.981 73.317C144.699 73.041 144.558 72.714 144.558 72.336C144.558 71.952 144.684 71.649 144.936 71.427C145.194 71.205 145.515 71.028 145.899 70.896C146.307 70.776 146.787 70.671 147.339 70.581C147.897 70.491 148.542 70.392 149.274 70.284C149.268 70.512 149.253 70.767 149.229 71.049C149.205 71.331 149.154 71.583 149.076 71.805C149.004 72.123 148.851 72.429 148.617 72.723C148.389 73.017 148.08 73.26 147.69 73.452C147.306 73.638 146.847 73.731 146.313 73.731ZM157.077 75H158.958V71.022H163.701V75H165.582V65.28H163.701V69.249H158.958V65.28H157.077V75ZM170.853 75.27C172.401 75.27 173.568 74.709 174.354 73.587V75H176.019V69.015C176.019 68.607 176.001 68.226 175.965 67.872C175.929 67.518 175.833 67.182 175.677 66.864C175.377 66.222 174.903 65.754 174.255 65.46C173.613 65.16 172.857 65.01 171.987 65.01C170.865 65.01 169.965 65.256 169.287 65.748C168.609 66.24 168.153 66.903 167.919 67.737L169.674 68.277C169.842 67.737 170.139 67.347 170.565 67.107C170.991 66.867 171.459 66.747 171.969 66.747C172.725 66.747 173.271 66.909 173.607 67.233C173.949 67.551 174.135 68.046 174.165 68.718C173.373 68.826 172.599 68.94 171.843 69.06C171.087 69.174 170.427 69.312 169.863 69.474C169.113 69.714 168.543 70.071 168.153 70.545C167.763 71.019 167.568 71.622 167.568 72.354C167.568 72.882 167.691 73.368 167.937 73.812C168.189 74.25 168.558 74.604 169.044 74.874C169.536 75.138 170.139 75.27 170.853 75.27ZM171.186 73.731C170.586 73.731 170.142 73.593 169.854 73.317C169.572 73.041 169.431 72.714 169.431 72.336C169.431 71.952 169.557 71.649 169.809 71.427C170.067 71.205 170.388 71.028 170.772 70.896C171.18 70.776 171.66 70.671 172.212 70.581C172.77 70.491 173.415 70.392 174.147 70.284C174.141 70.512 174.126 70.767 174.102 71.049C174.078 71.331 174.027 71.583 173.949 71.805C173.877 72.123 173.724 72.429 173.49 72.723C173.262 73.017 172.953 73.26 172.563 73.452C172.179 73.638 171.72 73.731 171.186 73.731ZM187.368 75.27C188.1 75.27 188.772 75.177 189.384 74.991C189.996 74.799 190.545 74.526 191.031 74.172L192.12 75.261L193.308 74.055L192.219 72.966C193.065 71.796 193.488 70.314 193.488 68.52C193.488 67.182 193.248 66.009 192.768 65.001C192.288 63.987 191.592 63.195 190.68 62.625C189.768 62.055 188.664 61.77 187.368 61.77C186.072 61.77 184.968 62.055 184.056 62.625C183.144 63.195 182.445 63.987 181.959 65.001C181.479 66.009 181.239 67.182 181.239 68.52C181.239 69.858 181.479 71.034 181.959 72.048C182.445 73.056 183.144 73.845 184.056 74.415C184.968 74.985 186.072 75.27 187.368 75.27ZM187.368 73.479C185.994 73.467 184.959 73.008 184.263 72.102C183.573 71.196 183.231 70.002 183.237 68.52C183.243 67.53 183.396 66.663 183.696 65.919C184.002 65.169 184.461 64.587 185.073 64.173C185.685 63.753 186.45 63.549 187.368 63.561C188.748 63.567 189.78 64.023 190.464 64.929C191.148 65.835 191.49 67.032 191.49 68.52C191.49 69.738 191.268 70.755 190.824 71.571L189.708 70.455L188.502 71.661L189.69 72.849C189.054 73.275 188.28 73.485 187.368 73.479ZM195.283 75H197.164V70.347H200.602L202.861 75H205.012L202.564 69.978C203.302 69.66 203.854 69.165 204.22 68.493C204.586 67.821 204.769 67.053 204.769 66.189C204.769 65.139 204.499 64.239 203.959 63.489C203.419 62.739 202.606 62.28 201.52 62.112C201.352 62.082 201.175 62.064 200.989 62.058C200.803 62.046 200.647 62.04 200.521 62.04H195.283V75ZM197.164 68.565V63.813H200.449C200.569 63.813 200.701 63.819 200.845 63.831C200.995 63.843 201.136 63.867 201.268 63.903C201.844 64.035 202.252 64.329 202.492 64.785C202.732 65.241 202.852 65.709 202.852 66.189C202.852 66.663 202.732 67.131 202.492 67.593C202.252 68.049 201.844 68.346 201.268 68.484C201.136 68.514 200.995 68.535 200.845 68.547C200.701 68.559 200.569 68.565 200.449 68.565H197.164ZM206.81 70.077H212.21V68.565H206.81V70.077ZM214.54 75H216.457V70.32L220.525 75H223.081L218.635 70.14L222.667 65.28H220.273L216.457 69.96V65.28H214.549L214.54 75ZM228.034 75.27C229 75.27 229.84 75.054 230.554 74.622C231.268 74.184 231.82 73.581 232.21 72.813C232.606 72.039 232.804 71.145 232.804 70.131C232.804 69.129 232.609 68.244 232.219 67.476C231.829 66.702 231.277 66.099 230.563 65.667C229.849 65.229 229.006 65.01 228.034 65.01C227.08 65.01 226.246 65.226 225.532 65.658C224.818 66.09 224.263 66.69 223.867 67.458C223.471 68.226 223.273 69.117 223.273 70.131C223.273 71.133 223.468 72.021 223.858 72.795C224.248 73.569 224.797 74.175 225.505 74.613C226.219 75.051 227.062 75.27 228.034 75.27ZM228.034 73.497C227.128 73.497 226.441 73.194 225.973 72.588C225.505 71.976 225.271 71.157 225.271 70.131C225.271 69.141 225.496 68.337 225.946 67.719C226.396 67.095 227.092 66.783 228.034 66.783C228.952 66.783 229.642 67.086 230.104 67.692C230.572 68.298 230.806 69.111 230.806 70.131C230.806 71.127 230.575 71.937 230.113 72.561C229.657 73.185 228.964 73.497 228.034 73.497ZM234.061 77.16H235.852V75H242.386V77.16H244.168V73.488H243.214V65.28H236.248C236.188 66.516 236.122 67.605 236.05 68.547C235.984 69.483 235.888 70.344 235.762 71.13C235.624 71.988 235.438 72.597 235.204 72.957C234.976 73.311 234.595 73.488 234.061 73.488V77.16ZM236.752 73.488C236.98 73.26 237.142 72.987 237.238 72.669C237.34 72.351 237.427 71.955 237.499 71.481C237.571 71.073 237.631 70.605 237.679 70.077C237.733 69.549 237.778 69 237.814 68.43C237.856 67.86 237.892 67.314 237.922 66.792H241.324V73.488H236.752ZM244.34 77.151C244.988 77.265 245.48 77.142 245.816 76.782C246.158 76.422 246.329 75.888 246.329 75.18V72.831H244.34V75H245.375C245.423 75.384 245.378 75.705 245.24 75.963C245.108 76.227 244.847 76.344 244.457 76.314L244.34 77.151ZM259.095 75H260.994V65.28H259.095V69.888C258.843 70.074 258.534 70.227 258.168 70.347C257.808 70.461 257.406 70.518 256.962 70.518C256.338 70.518 255.855 70.389 255.513 70.131C255.171 69.867 254.943 69.465 254.829 68.925C254.775 68.679 254.742 68.43 254.73 68.178C254.718 67.926 254.712 67.722 254.712 67.566V65.28H252.804V67.566C252.804 67.728 252.81 68.01 252.822 68.412C252.834 68.814 252.879 69.201 252.957 69.573C253.137 70.419 253.527 71.067 254.127 71.517C254.733 71.961 255.534 72.183 256.53 72.183C257.022 72.183 257.49 72.132 257.934 72.03C258.378 71.922 258.765 71.784 259.095 71.616V75ZM266.033 75H267.914V66.972H271.235V65.28H262.712V66.972H266.033V75ZM276.989 75.27C277.955 75.27 278.795 75.054 279.509 74.622C280.223 74.184 280.775 73.581 281.165 72.813C281.561 72.039 281.759 71.145 281.759 70.131C281.759 69.129 281.564 68.244 281.174 67.476C280.784 66.702 280.232 66.099 279.518 65.667C278.804 65.229 277.961 65.01 276.989 65.01C276.035 65.01 275.201 65.226 274.487 65.658C273.773 66.09 273.218 66.69 272.822 67.458C272.426 68.226 272.228 69.117 272.228 70.131C272.228 71.133 272.423 72.021 272.813 72.795C273.203 73.569 273.752 74.175 274.46 74.613C275.174 75.051 276.017 75.27 276.989 75.27ZM276.989 73.497C276.083 73.497 275.396 73.194 274.928 72.588C274.46 71.976 274.226 71.157 274.226 70.131C274.226 69.141 274.451 68.337 274.901 67.719C275.351 67.095 276.047 66.783 276.989 66.783C277.907 66.783 278.597 67.086 279.059 67.692C279.527 68.298 279.761 69.111 279.761 70.131C279.761 71.127 279.53 71.937 279.068 72.561C278.612 73.185 277.919 73.497 276.989 73.497ZM287.733 75.279C288.675 75.285 289.497 75.093 290.199 74.703C290.907 74.307 291.456 73.749 291.846 73.029C292.242 72.309 292.44 71.469 292.44 70.509C292.44 69.621 292.272 68.826 291.936 68.124C291.6 67.422 291.12 66.867 290.496 66.459C289.872 66.051 289.125 65.847 288.255 65.847C287.637 65.847 287.04 65.973 286.464 66.225C285.888 66.471 285.414 66.876 285.042 67.44C285.09 66.822 285.231 66.249 285.465 65.721C285.705 65.193 286.05 64.791 286.5 64.515C286.818 64.317 287.193 64.164 287.625 64.056C288.063 63.948 288.519 63.864 288.993 63.804C289.467 63.744 289.926 63.69 290.37 63.642C290.82 63.594 291.21 63.531 291.54 63.453L291.36 61.77C290.694 61.896 290.007 61.998 289.299 62.076C288.597 62.154 287.919 62.271 287.265 62.427C286.617 62.577 286.035 62.832 285.519 63.192C285.153 63.438 284.82 63.744 284.52 64.11C284.226 64.476 283.992 64.872 283.818 65.298C283.662 65.694 283.533 66.183 283.431 66.765C283.335 67.341 283.269 67.941 283.233 68.565C283.197 69.183 283.194 69.747 283.224 70.257C283.314 71.841 283.743 73.071 284.511 73.947C285.279 74.823 286.353 75.267 287.733 75.279ZM287.832 73.506C286.992 73.506 286.347 73.248 285.897 72.732C285.447 72.216 285.222 71.496 285.222 70.572C285.222 69.66 285.444 68.943 285.888 68.421C286.338 67.899 286.986 67.638 287.832 67.638C288.666 67.638 289.311 67.899 289.767 68.421C290.223 68.943 290.451 69.66 290.451 70.572C290.451 71.46 290.229 72.171 289.785 72.705C289.341 73.239 288.69 73.506 287.832 73.506ZM294.415 75H297.646C297.922 75 298.222 74.994 298.546 74.982C298.876 74.964 299.161 74.928 299.401 74.874C300.151 74.7 300.745 74.364 301.183 73.866C301.621 73.362 301.84 72.687 301.84 71.841C301.84 70.929 301.609 70.23 301.147 69.744C300.691 69.252 300.07 68.925 299.284 68.763C299.062 68.715 298.792 68.685 298.474 68.673C298.162 68.661 297.865 68.655 297.583 68.655H296.305V65.28H294.415V75ZM302.911 75H304.792V65.28H302.911V75ZM296.305 73.488V70.167H297.754C297.904 70.167 298.063 70.173 298.231 70.185C298.405 70.197 298.57 70.224 298.726 70.266C299.062 70.344 299.344 70.515 299.572 70.779C299.8 71.043 299.914 71.397 299.914 71.841C299.914 72.273 299.8 72.618 299.572 72.876C299.344 73.134 299.089 73.305 298.807 73.389C298.639 73.431 298.459 73.458 298.267 73.47C298.081 73.482 297.91 73.488 297.754 73.488H296.305ZM70.481 98.27C71.447 98.27 72.287 98.054 73.001 97.622C73.715 97.184 74.267 96.581 74.657 95.813C75.053 95.039 75.251 94.145 75.251 93.131C75.251 92.129 75.056 91.244 74.666 90.476C74.276 89.702 73.724 89.099 73.01 88.667C72.296 88.229 71.453 88.01 70.481 88.01C69.527 88.01 68.693 88.226 67.979 88.658C67.265 89.09 66.71 89.69 66.314 90.458C65.918 91.226 65.72 92.117 65.72 93.131C65.72 94.133 65.915 95.021 66.305 95.795C66.695 96.569 67.244 97.175 67.952 97.613C68.666 98.051 69.509 98.27 70.481 98.27ZM70.481 96.497C69.575 96.497 68.888 96.194 68.42 95.588C67.952 94.976 67.718 94.157 67.718 93.131C67.718 92.141 67.943 91.337 68.393 90.719C68.843 90.095 69.539 89.783 70.481 89.783C71.399 89.783 72.089 90.086 72.551 90.692C73.019 91.298 73.253 92.111 73.253 93.131C73.253 94.127 73.022 94.937 72.56 95.561C72.104 96.185 71.411 96.497 70.481 96.497ZM77.2198 98H79.1008V90.053H83.5378V98H85.4188V88.28H77.2198V98ZM87.0338 98C87.7298 98.15 88.2878 98.168 88.7078 98.054C89.1278 97.94 89.4518 97.694 89.6798 97.316C89.9138 96.938 90.0908 96.425 90.2108 95.777C90.3008 95.339 90.3818 94.796 90.4538 94.148C90.5318 93.494 90.6038 92.807 90.6698 92.087C90.7358 91.367 90.7928 90.689 90.8408 90.053H94.2428V98H96.1328V88.28H89.1488C89.0708 89.624 88.9838 90.872 88.8878 92.024C88.7918 93.176 88.6688 94.163 88.5188 94.985C88.4228 95.543 88.2848 95.945 88.1048 96.191C87.9248 96.431 87.5678 96.503 87.0338 96.407V98ZM101.401 98.27C102.949 98.27 104.116 97.709 104.902 96.587V98H106.567V92.015C106.567 91.607 106.549 91.226 106.513 90.872C106.477 90.518 106.381 90.182 106.225 89.864C105.925 89.222 105.451 88.754 104.803 88.46C104.161 88.16 103.405 88.01 102.535 88.01C101.413 88.01 100.513 88.256 99.8355 88.748C99.1575 89.24 98.7015 89.903 98.4675 90.737L100.222 91.277C100.39 90.737 100.687 90.347 101.113 90.107C101.539 89.867 102.007 89.747 102.517 89.747C103.273 89.747 103.819 89.909 104.155 90.233C104.497 90.551 104.683 91.046 104.713 91.718C103.921 91.826 103.147 91.94 102.391 92.06C101.635 92.174 100.975 92.312 100.411 92.474C99.6615 92.714 99.0915 93.071 98.7015 93.545C98.3115 94.019 98.1165 94.622 98.1165 95.354C98.1165 95.882 98.2395 96.368 98.4855 96.812C98.7375 97.25 99.1065 97.604 99.5925 97.874C100.084 98.138 100.687 98.27 101.401 98.27ZM101.734 96.731C101.134 96.731 100.69 96.593 100.402 96.317C100.12 96.041 99.9795 95.714 99.9795 95.336C99.9795 94.952 100.105 94.649 100.357 94.427C100.615 94.205 100.936 94.028 101.32 93.896C101.728 93.776 102.208 93.671 102.76 93.581C103.318 93.491 103.963 93.392 104.695 93.284C104.689 93.512 104.674 93.767 104.65 94.049C104.626 94.331 104.575 94.583 104.497 94.805C104.425 95.123 104.272 95.429 104.038 95.723C103.81 96.017 103.501 96.26 103.111 96.452C102.727 96.638 102.268 96.731 101.734 96.731ZM111.416 98H113.297V89.972H116.618V88.28H108.095V89.972H111.416V98ZM126.516 88.28H124.995L120.126 94.904V88.28H118.317V98H119.847L124.707 91.241V98H126.516V88.28ZM131.542 98H133.423V89.972H136.744V88.28H128.221V89.972H131.542V98ZM138.444 98H142.314C142.584 98 142.881 97.994 143.205 97.982C143.535 97.964 143.82 97.928 144.06 97.874C144.81 97.7 145.404 97.364 145.842 96.866C146.286 96.362 146.508 95.687 146.508 94.841C146.508 93.929 146.277 93.23 145.815 92.744C145.359 92.252 144.738 91.925 143.952 91.763C143.73 91.715 143.46 91.685 143.142 91.673C142.824 91.661 142.527 91.655 142.251 91.655H140.334V88.28H138.444V98ZM140.334 96.488V93.167H142.422C142.566 93.167 142.722 93.173 142.89 93.185C143.064 93.197 143.232 93.224 143.394 93.266C143.73 93.344 144.012 93.515 144.24 93.779C144.468 94.043 144.582 94.397 144.582 94.841C144.582 95.273 144.468 95.618 144.24 95.876C144.012 96.134 143.754 96.305 143.466 96.389C143.304 96.431 143.127 96.458 142.935 96.47C142.749 96.482 142.578 96.488 142.422 96.488H140.334ZM156.09 98.279C157.032 98.285 157.854 98.093 158.556 97.703C159.264 97.307 159.813 96.749 160.203 96.029C160.599 95.309 160.797 94.469 160.797 93.509C160.797 92.621 160.629 91.826 160.293 91.124C159.957 90.422 159.477 89.867 158.853 89.459C158.229 89.051 157.482 88.847 156.612 88.847C155.994 88.847 155.397 88.973 154.821 89.225C154.245 89.471 153.771 89.876 153.399 90.44C153.447 89.822 153.588 89.249 153.822 88.721C154.062 88.193 154.407 87.791 154.857 87.515C155.175 87.317 155.55 87.164 155.982 87.056C156.42 86.948 156.876 86.864 157.35 86.804C157.824 86.744 158.283 86.69 158.727 86.642C159.177 86.594 159.567 86.531 159.897 86.453L159.717 84.77C159.051 84.896 158.364 84.998 157.656 85.076C156.954 85.154 156.276 85.271 155.622 85.427C154.974 85.577 154.392 85.832 153.876 86.192C153.51 86.438 153.177 86.744 152.877 87.11C152.583 87.476 152.349 87.872 152.175 88.298C152.019 88.694 151.89 89.183 151.788 89.765C151.692 90.341 151.626 90.941 151.59 91.565C151.554 92.183 151.551 92.747 151.581 93.257C151.671 94.841 152.1 96.071 152.868 96.947C153.636 97.823 154.71 98.267 156.09 98.279ZM156.189 96.506C155.349 96.506 154.704 96.248 154.254 95.732C153.804 95.216 153.579 94.496 153.579 93.572C153.579 92.66 153.801 91.943 154.245 91.421C154.695 90.899 155.343 90.638 156.189 90.638C157.023 90.638 157.668 90.899 158.124 91.421C158.58 91.943 158.808 92.66 158.808 93.572C158.808 94.46 158.586 95.171 158.142 95.705C157.698 96.239 157.047 96.506 156.189 96.506ZM167.092 98.27C168.034 98.27 168.889 98.033 169.657 97.559C170.425 97.079 170.998 96.404 171.376 95.534L169.531 94.949C169.039 95.981 168.196 96.497 167.002 96.497C166.186 96.497 165.544 96.251 165.076 95.759C164.608 95.267 164.335 94.571 164.257 93.671H171.502C171.568 92.507 171.43 91.502 171.088 90.656C170.746 89.81 170.227 89.159 169.531 88.703C168.835 88.241 167.992 88.01 167.002 88.01C166.054 88.01 165.223 88.223 164.509 88.649C163.795 89.075 163.237 89.678 162.835 90.458C162.439 91.238 162.241 92.159 162.241 93.221C162.241 94.223 162.442 95.105 162.844 95.867C163.252 96.623 163.819 97.214 164.545 97.64C165.277 98.06 166.126 98.27 167.092 98.27ZM167.074 89.675C168.544 89.675 169.378 90.518 169.576 92.204H164.302C164.422 91.382 164.713 90.755 165.175 90.323C165.637 89.891 166.27 89.675 167.074 89.675ZM177.68 98.27C178.724 98.27 179.612 98.018 180.344 97.514C181.076 97.01 181.601 96.281 181.919 95.327L180.011 94.877C179.813 95.399 179.525 95.801 179.147 96.083C178.775 96.359 178.286 96.497 177.68 96.497C176.792 96.497 176.12 96.188 175.664 95.57C175.214 94.952 174.986 94.142 174.98 93.14C174.986 92.168 175.205 91.367 175.637 90.737C176.075 90.101 176.756 89.783 177.68 89.783C178.226 89.783 178.709 89.936 179.129 90.242C179.555 90.542 179.861 90.965 180.047 91.511L181.919 90.971C181.679 90.059 181.181 89.339 180.425 88.811C179.675 88.277 178.769 88.01 177.707 88.01C176.729 88.01 175.886 88.229 175.178 88.667C174.476 89.105 173.936 89.711 173.558 90.485C173.18 91.253 172.988 92.138 172.982 93.14C172.988 94.124 173.174 95.003 173.54 95.777C173.912 96.551 174.446 97.16 175.142 97.604C175.844 98.048 176.69 98.27 177.68 98.27ZM183.743 98H185.66V93.32L189.728 98H192.284L187.838 93.14L191.87 88.28H189.476L185.66 92.96V88.28H183.752L183.743 98ZM197.237 98.27C198.203 98.27 199.043 98.054 199.757 97.622C200.471 97.184 201.023 96.581 201.413 95.813C201.809 95.039 202.007 94.145 202.007 93.131C202.007 92.129 201.812 91.244 201.422 90.476C201.032 89.702 200.48 89.099 199.766 88.667C199.052 88.229 198.209 88.01 197.237 88.01C196.283 88.01 195.449 88.226 194.735 88.658C194.021 89.09 193.466 89.69 193.07 90.458C192.674 91.226 192.476 92.117 192.476 93.131C192.476 94.133 192.671 95.021 193.061 95.795C193.451 96.569 194 97.175 194.708 97.613C195.422 98.051 196.265 98.27 197.237 98.27ZM197.237 96.497C196.331 96.497 195.644 96.194 195.176 95.588C194.708 94.976 194.474 94.157 194.474 93.131C194.474 92.141 194.699 91.337 195.149 90.719C195.599 90.095 196.295 89.783 197.237 89.783C198.155 89.783 198.845 90.086 199.307 90.692C199.775 91.298 200.009 92.111 200.009 93.131C200.009 94.127 199.778 94.937 199.316 95.561C198.86 96.185 198.167 96.497 197.237 96.497ZM203.976 98H205.857V94.022H210.6V98H212.481V88.28H210.6V92.249H205.857V88.28H203.976V98ZM217.517 98H219.398V89.972H222.719V88.28H214.196V89.972H217.517V98ZM226.909 98.27C228.457 98.27 229.624 97.709 230.41 96.587V98H232.075V92.015C232.075 91.607 232.057 91.226 232.021 90.872C231.985 90.518 231.889 90.182 231.733 89.864C231.433 89.222 230.959 88.754 230.311 88.46C229.669 88.16 228.913 88.01 228.043 88.01C226.921 88.01 226.021 88.256 225.343 88.748C224.665 89.24 224.209 89.903 223.975 90.737L225.73 91.277C225.898 90.737 226.195 90.347 226.621 90.107C227.047 89.867 227.515 89.747 228.025 89.747C228.781 89.747 229.327 89.909 229.663 90.233C230.005 90.551 230.191 91.046 230.221 91.718C229.429 91.826 228.655 91.94 227.899 92.06C227.143 92.174 226.483 92.312 225.919 92.474C225.169 92.714 224.599 93.071 224.209 93.545C223.819 94.019 223.624 94.622 223.624 95.354C223.624 95.882 223.747 96.368 223.993 96.812C224.245 97.25 224.614 97.604 225.1 97.874C225.592 98.138 226.195 98.27 226.909 98.27ZM227.242 96.731C226.642 96.731 226.198 96.593 225.91 96.317C225.628 96.041 225.487 95.714 225.487 95.336C225.487 94.952 225.613 94.649 225.865 94.427C226.123 94.205 226.444 94.028 226.828 93.896C227.236 93.776 227.716 93.671 228.268 93.581C228.826 93.491 229.471 93.392 230.203 93.284C230.197 93.512 230.182 93.767 230.158 94.049C230.134 94.331 230.083 94.583 230.005 94.805C229.933 95.123 229.78 95.429 229.546 95.723C229.318 96.017 229.009 96.26 228.619 96.452C228.235 96.638 227.776 96.731 227.242 96.731ZM234.403 98H236.32V93.32L240.388 98H242.944L238.498 93.14L242.53 88.28H240.136L236.32 92.96V88.28H234.412L234.403 98ZM246.363 98H248.244V89.972H251.565V88.28H243.042V89.972H246.363V98ZM253.265 98H255.146V94.022H259.889V98H261.77V88.28H259.889V92.249H255.146V88.28H253.265V98ZM268.516 98.27C269.482 98.27 270.322 98.054 271.036 97.622C271.75 97.184 272.302 96.581 272.692 95.813C273.088 95.039 273.286 94.145 273.286 93.131C273.286 92.129 273.091 91.244 272.701 90.476C272.311 89.702 271.759 89.099 271.045 88.667C270.331 88.229 269.488 88.01 268.516 88.01C267.562 88.01 266.728 88.226 266.014 88.658C265.3 89.09 264.745 89.69 264.349 90.458C263.953 91.226 263.755 92.117 263.755 93.131C263.755 94.133 263.95 95.021 264.34 95.795C264.73 96.569 265.279 97.175 265.987 97.613C266.701 98.051 267.544 98.27 268.516 98.27ZM268.516 96.497C267.61 96.497 266.923 96.194 266.455 95.588C265.987 94.976 265.753 94.157 265.753 93.131C265.753 92.141 265.978 91.337 266.428 90.719C266.878 90.095 267.574 89.783 268.516 89.783C269.434 89.783 270.124 90.086 270.586 90.692C271.054 91.298 271.288 92.111 271.288 93.131C271.288 94.127 271.057 94.937 270.595 95.561C270.139 96.185 269.446 96.497 268.516 96.497Z" fill="#1D1D1D"/>
<defs>
<filter id="filter0_d" x="0" y="0" width="371.969" height="143.737" filterUnits="userSpaceOnUse" color-interpolation-filters="sRGB">
<feFlood flood-opacity="0" result="BackgroundImageFix"/>
<feColorMatrix in="SourceAlpha" type="matrix" values="0 0 0 0 0 0 0 0 0 0 0 0 0 0 0 0 0 0 127 0"/>
<feOffset dx="2" dy="4"/>
<feGaussianBlur stdDeviation="12.5"/>
<feColorMatrix type="matrix" values="0 0 0 0 0 0 0 0 0 0 0 0 0 0 0 0 0 0 0.08 0"/>
<feBlend mode="normal" in2="BackgroundImageFix" result="effect1_dropShadow"/>
<feBlend mode="normal" in="SourceGraphic" in2="effect1_dropShadow" result="shape"/>
</filter>
</defs>
</svg>
