<svg width="22" height="20" viewBox="0 0 22 20" fill="none" xmlns="http://www.w3.org/2000/svg">
<path d="M10.9988 8.63478C8.39722 8.63478 3.74423 12.5821 3.74423 17.4506C3.74423 22.3207 6.99123 18.716 10.9988 18.716C15.0064 18.716 18.2534 22.3207 18.2534 17.4506C18.2534 12.5821 13.6004 8.63774 10.9988 8.63478ZM13.7163 7.13054C15.0716 7.50818 16.5761 6.23347 17.0781 4.28238C17.58 2.33129 16.8895 0.443913 15.5358 0.0662683C14.1805 -0.311376 12.676 0.963332 12.1741 2.91442C11.6718 4.86552 12.361 6.75332 13.7163 7.13054ZM8.28127 7.13391C9.63659 6.75627 10.327 4.86889 9.82349 2.9178C9.31996 0.966707 7.81545 -0.309265 6.46175 0.068379C5.10644 0.446023 4.41601 2.3334 4.91954 4.28449C5.42266 6.23685 6.92758 7.51113 8.28127 7.13391ZM4.43912 7.78624C3.58003 6.23685 2.01187 5.50434 0.936702 6.15077C-0.13847 6.7972 -0.314016 8.57445 0.545067 10.1255C1.40415 11.6766 2.97231 12.4074 4.04748 11.761C5.12265 11.1146 5.29942 9.33691 4.43912 7.78624ZM21.0637 6.14782C19.9886 5.50139 18.4216 6.2339 17.5613 7.78161C16.7022 9.331 16.8766 11.1112 17.9517 11.7576C19.0269 12.4041 20.5955 11.6715 21.4558 10.1222C22.3132 8.57276 22.1389 6.79382 21.0637 6.14782Z" fill="white"/>
</svg>
