<svg width="75" height="75" viewBox="0 0 75 75" fill="none" xmlns="http://www.w3.org/2000/svg">
<path d="M2.58621 0H0V2.58621H2.58621V0Z" fill="#045A2F"/>
<path d="M5.17241 0H2.58621V2.58621H5.17241V0Z" fill="#045A2F"/>
<path d="M7.75862 0H5.17241V2.58621H7.75862V0Z" fill="#045A2F"/>
<path d="M10.3448 0H7.75862V2.58621H10.3448V0Z" fill="#045A2F"/>
<path d="M12.931 0H10.3448V2.58621H12.931V0Z" fill="#045A2F"/>
<path d="M15.5172 0H12.931V2.58621H15.5172V0Z" fill="#045A2F"/>
<path d="M18.1035 0H15.5172V2.58621H18.1035V0Z" fill="#045A2F"/>
<path d="M23.2759 0H20.6897V2.58621H23.2759V0Z" fill="#045A2F"/>
<path d="M25.8621 0H23.2759V2.58621H25.8621V0Z" fill="#045A2F"/>
<path d="M31.0345 0H28.4483V2.58621H31.0345V0Z" fill="#045A2F"/>
<path d="M41.3793 0H38.7931V2.58621H41.3793V0Z" fill="#045A2F"/>
<path d="M49.1379 0H46.5517V2.58621H49.1379V0Z" fill="#045A2F"/>
<path d="M54.3103 0H51.7241V2.58621H54.3103V0Z" fill="#045A2F"/>
<path d="M59.4828 0H56.8966V2.58621H59.4828V0Z" fill="#045A2F"/>
<path d="M62.069 0H59.4828V2.58621H62.069V0Z" fill="#045A2F"/>
<path d="M64.6552 0H62.069V2.58621H64.6552V0Z" fill="#045A2F"/>
<path d="M67.2414 0H64.6552V2.58621H67.2414V0Z" fill="#045A2F"/>
<path d="M69.8276 0H67.2414V2.58621H69.8276V0Z" fill="#045A2F"/>
<path d="M72.4138 0H69.8276V2.58621H72.4138V0Z" fill="#045A2F"/>
<path d="M75 0H72.4138V2.58621H75V0Z" fill="#045A2F"/>
<path d="M2.58621 2.58621H0V5.17241H2.58621V2.58621Z" fill="#045A2F"/>
<path d="M18.1035 2.58621H15.5172V5.17241H18.1035V2.58621Z" fill="#045A2F"/>
<path d="M31.0345 2.58621H28.4483V5.17241H31.0345V2.58621Z" fill="#045A2F"/>
<path d="M38.7931 2.58621H36.2069V5.17241H38.7931V2.58621Z" fill="#045A2F"/>
<path d="M41.3793 2.58621H38.7931V5.17241H41.3793V2.58621Z" fill="#045A2F"/>
<path d="M59.4828 2.58621H56.8966V5.17241H59.4828V2.58621Z" fill="#045A2F"/>
<path d="M75 2.58621H72.4138V5.17241H75V2.58621Z" fill="#045A2F"/>
<path d="M2.58621 5.17241H0V7.75862H2.58621V5.17241Z" fill="#045A2F"/>
<path d="M7.75862 5.17241H5.17241V7.75862H7.75862V5.17241Z" fill="#045A2F"/>
<path d="M10.3448 5.17241H7.75862V7.75862H10.3448V5.17241Z" fill="#045A2F"/>
<path d="M12.931 5.17241H10.3448V7.75862H12.931V5.17241Z" fill="#045A2F"/>
<path d="M18.1035 5.17241H15.5172V7.75862H18.1035V5.17241Z" fill="#045A2F"/>
<path d="M25.8621 5.17241H23.2759V7.75862H25.8621V5.17241Z" fill="#045A2F"/>
<path d="M28.4483 5.17241H25.8621V7.75862H28.4483V5.17241Z" fill="#045A2F"/>
<path d="M31.0345 5.17241H28.4483V7.75862H31.0345V5.17241Z" fill="#045A2F"/>
<path d="M33.6207 5.17241H31.0345V7.75862H33.6207V5.17241Z" fill="#045A2F"/>
<path d="M36.2069 5.17241H33.6207V7.75862H36.2069V5.17241Z" fill="#045A2F"/>
<path d="M43.9655 5.17241H41.3793V7.75862H43.9655V5.17241Z" fill="#045A2F"/>
<path d="M46.5517 5.17241H43.9655V7.75862H46.5517V5.17241Z" fill="#045A2F"/>
<path d="M54.3103 5.17241H51.7241V7.75862H54.3103V5.17241Z" fill="#045A2F"/>
<path d="M59.4828 5.17241H56.8966V7.75862H59.4828V5.17241Z" fill="#045A2F"/>
<path d="M64.6552 5.17241H62.069V7.75862H64.6552V5.17241Z" fill="#045A2F"/>
<path d="M67.2414 5.17241H64.6552V7.75862H67.2414V5.17241Z" fill="#045A2F"/>
<path d="M69.8276 5.17241H67.2414V7.75862H69.8276V5.17241Z" fill="#045A2F"/>
<path d="M75 5.17241H72.4138V7.75862H75V5.17241Z" fill="#045A2F"/>
<path d="M2.58621 7.75862H0V10.3448H2.58621V7.75862Z" fill="#045A2F"/>
<path d="M7.75862 7.75862H5.17241V10.3448H7.75862V7.75862Z" fill="#045A2F"/>
<path d="M10.3448 7.75862H7.75862V10.3448H10.3448V7.75862Z" fill="#045A2F"/>
<path d="M12.931 7.75862H10.3448V10.3448H12.931V7.75862Z" fill="#045A2F"/>
<path d="M18.1035 7.75862H15.5172V10.3448H18.1035V7.75862Z" fill="#045A2F"/>
<path d="M23.2759 7.75862H20.6897V10.3448H23.2759V7.75862Z" fill="#045A2F"/>
<path d="M28.4483 7.75862H25.8621V10.3448H28.4483V7.75862Z" fill="#045A2F"/>
<path d="M36.2069 7.75862H33.6207V10.3448H36.2069V7.75862Z" fill="#045A2F"/>
<path d="M38.7931 7.75862H36.2069V10.3448H38.7931V7.75862Z" fill="#045A2F"/>
<path d="M41.3793 7.75862H38.7931V10.3448H41.3793V7.75862Z" fill="#045A2F"/>
<path d="M49.1379 7.75862H46.5517V10.3448H49.1379V7.75862Z" fill="#045A2F"/>
<path d="M51.7241 7.75862H49.1379V10.3448H51.7241V7.75862Z" fill="#045A2F"/>
<path d="M59.4828 7.75862H56.8966V10.3448H59.4828V7.75862Z" fill="#045A2F"/>
<path d="M64.6552 7.75862H62.069V10.3448H64.6552V7.75862Z" fill="#045A2F"/>
<path d="M67.2414 7.75862H64.6552V10.3448H67.2414V7.75862Z" fill="#045A2F"/>
<path d="M69.8276 7.75862H67.2414V10.3448H69.8276V7.75862Z" fill="#045A2F"/>
<path d="M75 7.75862H72.4138V10.3448H75V7.75862Z" fill="#045A2F"/>
<path d="M2.58621 10.3448H0V12.931H2.58621V10.3448Z" fill="#045A2F"/>
<path d="M7.75862 10.3448H5.17241V12.931H7.75862V10.3448Z" fill="#045A2F"/>
<path d="M10.3448 10.3448H7.75862V12.931H10.3448V10.3448Z" fill="#045A2F"/>
<path d="M12.931 10.3448H10.3448V12.931H12.931V10.3448Z" fill="#045A2F"/>
<path d="M18.1035 10.3448H15.5172V12.931H18.1035V10.3448Z" fill="#045A2F"/>
<path d="M31.0345 10.3448H28.4483V12.931H31.0345V10.3448Z" fill="#045A2F"/>
<path d="M33.6207 10.3448H31.0345V12.931H33.6207V10.3448Z" fill="#045A2F"/>
<path d="M43.9655 10.3448H41.3793V12.931H43.9655V10.3448Z" fill="#045A2F"/>
<path d="M59.4828 10.3448H56.8966V12.931H59.4828V10.3448Z" fill="#045A2F"/>
<path d="M64.6552 10.3448H62.069V12.931H64.6552V10.3448Z" fill="#045A2F"/>
<path d="M67.2414 10.3448H64.6552V12.931H67.2414V10.3448Z" fill="#045A2F"/>
<path d="M69.8276 10.3448H67.2414V12.931H69.8276V10.3448Z" fill="#045A2F"/>
<path d="M75 10.3448H72.4138V12.931H75V10.3448Z" fill="#045A2F"/>
<path d="M2.58621 12.931H0V15.5172H2.58621V12.931Z" fill="#045A2F"/>
<path d="M18.1035 12.931H15.5172V15.5172H18.1035V12.931Z" fill="#045A2F"/>
<path d="M23.2759 12.931H20.6897V15.5172H23.2759V12.931Z" fill="#045A2F"/>
<path d="M41.3793 12.931H38.7931V15.5172H41.3793V12.931Z" fill="#045A2F"/>
<path d="M51.7241 12.931H49.1379V15.5172H51.7241V12.931Z" fill="#045A2F"/>
<path d="M59.4828 12.931H56.8966V15.5172H59.4828V12.931Z" fill="#045A2F"/>
<path d="M75 12.931H72.4138V15.5172H75V12.931Z" fill="#045A2F"/>
<path d="M2.58621 15.5172H0V18.1035H2.58621V15.5172Z" fill="#045A2F"/>
<path d="M5.17241 15.5172H2.58621V18.1035H5.17241V15.5172Z" fill="#045A2F"/>
<path d="M7.75862 15.5172H5.17241V18.1035H7.75862V15.5172Z" fill="#045A2F"/>
<path d="M10.3448 15.5172H7.75862V18.1035H10.3448V15.5172Z" fill="#045A2F"/>
<path d="M12.931 15.5172H10.3448V18.1035H12.931V15.5172Z" fill="#045A2F"/>
<path d="M15.5172 15.5172H12.931V18.1035H15.5172V15.5172Z" fill="#045A2F"/>
<path d="M18.1035 15.5172H15.5172V18.1035H18.1035V15.5172Z" fill="#045A2F"/>
<path d="M23.2759 15.5172H20.6897V18.1035H23.2759V15.5172Z" fill="#045A2F"/>
<path d="M28.4483 15.5172H25.8621V18.1035H28.4483V15.5172Z" fill="#045A2F"/>
<path d="M33.6207 15.5172H31.0345V18.1035H33.6207V15.5172Z" fill="#045A2F"/>
<path d="M38.7931 15.5172H36.2069V18.1035H38.7931V15.5172Z" fill="#045A2F"/>
<path d="M43.9655 15.5172H41.3793V18.1035H43.9655V15.5172Z" fill="#045A2F"/>
<path d="M49.1379 15.5172H46.5517V18.1035H49.1379V15.5172Z" fill="#045A2F"/>
<path d="M54.3103 15.5172H51.7241V18.1035H54.3103V15.5172Z" fill="#045A2F"/>
<path d="M59.4828 15.5172H56.8966V18.1035H59.4828V15.5172Z" fill="#045A2F"/>
<path d="M62.069 15.5172H59.4828V18.1035H62.069V15.5172Z" fill="#045A2F"/>
<path d="M64.6552 15.5172H62.069V18.1035H64.6552V15.5172Z" fill="#045A2F"/>
<path d="M67.2414 15.5172H64.6552V18.1035H67.2414V15.5172Z" fill="#045A2F"/>
<path d="M69.8276 15.5172H67.2414V18.1035H69.8276V15.5172Z" fill="#045A2F"/>
<path d="M72.4138 15.5172H69.8276V18.1035H72.4138V15.5172Z" fill="#045A2F"/>
<path d="M75 15.5172H72.4138V18.1035H75V15.5172Z" fill="#045A2F"/>
<path d="M25.8621 18.1035H23.2759V20.6897H25.8621V18.1035Z" fill="#045A2F"/>
<path d="M31.0345 18.1035H28.4483V20.6897H31.0345V18.1035Z" fill="#045A2F"/>
<path d="M33.6207 18.1035H31.0345V20.6897H33.6207V18.1035Z" fill="#045A2F"/>
<path d="M36.2069 18.1035H33.6207V20.6897H36.2069V18.1035Z" fill="#045A2F"/>
<path d="M43.9655 18.1035H41.3793V20.6897H43.9655V18.1035Z" fill="#045A2F"/>
<path d="M46.5517 18.1035H43.9655V20.6897H46.5517V18.1035Z" fill="#045A2F"/>
<path d="M49.1379 18.1035H46.5517V20.6897H49.1379V18.1035Z" fill="#045A2F"/>
<path d="M15.5172 20.6897H12.931V23.2759H15.5172V20.6897Z" fill="#045A2F"/>
<path d="M18.1035 20.6897H15.5172V23.2759H18.1035V20.6897Z" fill="#045A2F"/>
<path d="M23.2759 20.6897H20.6897V23.2759H23.2759V20.6897Z" fill="#045A2F"/>
<path d="M31.0345 20.6897H28.4483V23.2759H31.0345V20.6897Z" fill="#045A2F"/>
<path d="M41.3793 20.6897H38.7931V23.2759H41.3793V20.6897Z" fill="#045A2F"/>
<path d="M43.9655 20.6897H41.3793V23.2759H43.9655V20.6897Z" fill="#045A2F"/>
<path d="M46.5517 20.6897H43.9655V23.2759H46.5517V20.6897Z" fill="#045A2F"/>
<path d="M51.7241 20.6897H49.1379V23.2759H51.7241V20.6897Z" fill="#045A2F"/>
<path d="M54.3103 20.6897H51.7241V23.2759H54.3103V20.6897Z" fill="#045A2F"/>
<path d="M56.8966 20.6897H54.3103V23.2759H56.8966V20.6897Z" fill="#045A2F"/>
<path d="M62.069 20.6897H59.4828V23.2759H62.069V20.6897Z" fill="#045A2F"/>
<path d="M67.2414 20.6897H64.6552V23.2759H67.2414V20.6897Z" fill="#045A2F"/>
<path d="M75 20.6897H72.4138V23.2759H75V20.6897Z" fill="#045A2F"/>
<path d="M5.17241 23.2759H2.58621V25.8621H5.17241V23.2759Z" fill="#045A2F"/>
<path d="M7.75862 23.2759H5.17241V25.8621H7.75862V23.2759Z" fill="#045A2F"/>
<path d="M20.6897 23.2759H18.1035V25.8621H20.6897V23.2759Z" fill="#045A2F"/>
<path d="M23.2759 23.2759H20.6897V25.8621H23.2759V23.2759Z" fill="#045A2F"/>
<path d="M25.8621 23.2759H23.2759V25.8621H25.8621V23.2759Z" fill="#045A2F"/>
<path d="M31.0345 23.2759H28.4483V25.8621H31.0345V23.2759Z" fill="#045A2F"/>
<path d="M33.6207 23.2759H31.0345V25.8621H33.6207V23.2759Z" fill="#045A2F"/>
<path d="M38.7931 23.2759H36.2069V25.8621H38.7931V23.2759Z" fill="#045A2F"/>
<path d="M41.3793 23.2759H38.7931V25.8621H41.3793V23.2759Z" fill="#045A2F"/>
<path d="M49.1379 23.2759H46.5517V25.8621H49.1379V23.2759Z" fill="#045A2F"/>
<path d="M51.7241 23.2759H49.1379V25.8621H51.7241V23.2759Z" fill="#045A2F"/>
<path d="M64.6552 23.2759H62.069V25.8621H64.6552V23.2759Z" fill="#045A2F"/>
<path d="M69.8276 23.2759H67.2414V25.8621H69.8276V23.2759Z" fill="#045A2F"/>
<path d="M75 23.2759H72.4138V25.8621H75V23.2759Z" fill="#045A2F"/>
<path d="M7.75862 25.8621H5.17241V28.4483H7.75862V25.8621Z" fill="#045A2F"/>
<path d="M10.3448 25.8621H7.75862V28.4483H10.3448V25.8621Z" fill="#045A2F"/>
<path d="M15.5172 25.8621H12.931V28.4483H15.5172V25.8621Z" fill="#045A2F"/>
<path d="M18.1035 25.8621H15.5172V28.4483H18.1035V25.8621Z" fill="#045A2F"/>
<path d="M23.2759 25.8621H20.6897V28.4483H23.2759V25.8621Z" fill="#045A2F"/>
<path d="M28.4483 25.8621H25.8621V28.4483H28.4483V25.8621Z" fill="#045A2F"/>
<path d="M31.0345 25.8621H28.4483V28.4483H31.0345V25.8621Z" fill="#045A2F"/>
<path d="M38.7931 25.8621H36.2069V28.4483H38.7931V25.8621Z" fill="#045A2F"/>
<path d="M46.5517 25.8621H43.9655V28.4483H46.5517V25.8621Z" fill="#045A2F"/>
<path d="M51.7241 25.8621H49.1379V28.4483H51.7241V25.8621Z" fill="#045A2F"/>
<path d="M56.8966 25.8621H54.3103V28.4483H56.8966V25.8621Z" fill="#045A2F"/>
<path d="M62.069 25.8621H59.4828V28.4483H62.069V25.8621Z" fill="#045A2F"/>
<path d="M64.6552 25.8621H62.069V28.4483H64.6552V25.8621Z" fill="#045A2F"/>
<path d="M67.2414 25.8621H64.6552V28.4483H67.2414V25.8621Z" fill="#045A2F"/>
<path d="M75 25.8621H72.4138V28.4483H75V25.8621Z" fill="#045A2F"/>
<path d="M2.58621 28.4483H0V31.0345H2.58621V28.4483Z" fill="#045A2F"/>
<path d="M12.931 28.4483H10.3448V31.0345H12.931V28.4483Z" fill="#045A2F"/>
<path d="M15.5172 28.4483H12.931V31.0345H15.5172V28.4483Z" fill="#045A2F"/>
<path d="M20.6897 28.4483H18.1035V31.0345H20.6897V28.4483Z" fill="#045A2F"/>
<path d="M23.2759 28.4483H20.6897V31.0345H23.2759V28.4483Z" fill="#045A2F"/>
<path d="M28.4483 28.4483H25.8621V31.0345H28.4483V28.4483Z" fill="#045A2F"/>
<path d="M36.2069 28.4483H33.6207V31.0345H36.2069V28.4483Z" fill="#045A2F"/>
<path d="M43.9655 28.4483H41.3793V31.0345H43.9655V28.4483Z" fill="#045A2F"/>
<path d="M46.5517 28.4483H43.9655V31.0345H46.5517V28.4483Z" fill="#045A2F"/>
<path d="M49.1379 28.4483H46.5517V31.0345H49.1379V28.4483Z" fill="#045A2F"/>
<path d="M54.3103 28.4483H51.7241V31.0345H54.3103V28.4483Z" fill="#045A2F"/>
<path d="M75 28.4483H72.4138V31.0345H75V28.4483Z" fill="#045A2F"/>
<path d="M2.58621 31.0345H0V33.6207H2.58621V31.0345Z" fill="#045A2F"/>
<path d="M5.17241 31.0345H2.58621V33.6207H5.17241V31.0345Z" fill="#045A2F"/>
<path d="M7.75862 31.0345H5.17241V33.6207H7.75862V31.0345Z" fill="#045A2F"/>
<path d="M10.3448 31.0345H7.75862V33.6207H10.3448V31.0345Z" fill="#045A2F"/>
<path d="M12.931 31.0345H10.3448V33.6207H12.931V31.0345Z" fill="#045A2F"/>
<path d="M18.1035 31.0345H15.5172V33.6207H18.1035V31.0345Z" fill="#045A2F"/>
<path d="M23.2759 31.0345H20.6897V33.6207H23.2759V31.0345Z" fill="#045A2F"/>
<path d="M28.4483 31.0345H25.8621V33.6207H28.4483V31.0345Z" fill="#045A2F"/>
<path d="M38.7931 31.0345H36.2069V33.6207H38.7931V31.0345Z" fill="#045A2F"/>
<path d="M46.5517 31.0345H43.9655V33.6207H46.5517V31.0345Z" fill="#045A2F"/>
<path d="M49.1379 31.0345H46.5517V33.6207H49.1379V31.0345Z" fill="#045A2F"/>
<path d="M56.8966 31.0345H54.3103V33.6207H56.8966V31.0345Z" fill="#045A2F"/>
<path d="M59.4828 31.0345H56.8966V33.6207H59.4828V31.0345Z" fill="#045A2F"/>
<path d="M62.069 31.0345H59.4828V33.6207H62.069V31.0345Z" fill="#045A2F"/>
<path d="M64.6552 31.0345H62.069V33.6207H64.6552V31.0345Z" fill="#045A2F"/>
<path d="M67.2414 31.0345H64.6552V33.6207H67.2414V31.0345Z" fill="#045A2F"/>
<path d="M75 31.0345H72.4138V33.6207H75V31.0345Z" fill="#045A2F"/>
<path d="M10.3448 33.6207H7.75862V36.2069H10.3448V33.6207Z" fill="#045A2F"/>
<path d="M20.6897 33.6207H18.1035V36.2069H20.6897V33.6207Z" fill="#045A2F"/>
<path d="M25.8621 33.6207H23.2759V36.2069H25.8621V33.6207Z" fill="#045A2F"/>
<path d="M28.4483 33.6207H25.8621V36.2069H28.4483V33.6207Z" fill="#045A2F"/>
<path d="M31.0345 33.6207H28.4483V36.2069H31.0345V33.6207Z" fill="#045A2F"/>
<path d="M36.2069 33.6207H33.6207V36.2069H36.2069V33.6207Z" fill="#045A2F"/>
<path d="M38.7931 33.6207H36.2069V36.2069H38.7931V33.6207Z" fill="#045A2F"/>
<path d="M43.9655 33.6207H41.3793V36.2069H43.9655V33.6207Z" fill="#045A2F"/>
<path d="M46.5517 33.6207H43.9655V36.2069H46.5517V33.6207Z" fill="#045A2F"/>
<path d="M67.2414 33.6207H64.6552V36.2069H67.2414V33.6207Z" fill="#045A2F"/>
<path d="M2.58621 36.2069H0V38.7931H2.58621V36.2069Z" fill="#045A2F"/>
<path d="M7.75862 36.2069H5.17241V38.7931H7.75862V36.2069Z" fill="#045A2F"/>
<path d="M18.1035 36.2069H15.5172V38.7931H18.1035V36.2069Z" fill="#045A2F"/>
<path d="M23.2759 36.2069H20.6897V38.7931H23.2759V36.2069Z" fill="#045A2F"/>
<path d="M28.4483 36.2069H25.8621V38.7931H28.4483V36.2069Z" fill="#045A2F"/>
<path d="M33.6207 36.2069H31.0345V38.7931H33.6207V36.2069Z" fill="#045A2F"/>
<path d="M36.2069 36.2069H33.6207V38.7931H36.2069V36.2069Z" fill="#045A2F"/>
<path d="M38.7931 36.2069H36.2069V38.7931H38.7931V36.2069Z" fill="#045A2F"/>
<path d="M46.5517 36.2069H43.9655V38.7931H46.5517V36.2069Z" fill="#045A2F"/>
<path d="M49.1379 36.2069H46.5517V38.7931H49.1379V36.2069Z" fill="#045A2F"/>
<path d="M51.7241 36.2069H49.1379V38.7931H51.7241V36.2069Z" fill="#045A2F"/>
<path d="M56.8966 36.2069H54.3103V38.7931H56.8966V36.2069Z" fill="#045A2F"/>
<path d="M62.069 36.2069H59.4828V38.7931H62.069V36.2069Z" fill="#045A2F"/>
<path d="M69.8276 36.2069H67.2414V38.7931H69.8276V36.2069Z" fill="#045A2F"/>
<path d="M72.4138 36.2069H69.8276V38.7931H72.4138V36.2069Z" fill="#045A2F"/>
<path d="M7.75862 38.7931H5.17241V41.3793H7.75862V38.7931Z" fill="#045A2F"/>
<path d="M15.5172 38.7931H12.931V41.3793H15.5172V38.7931Z" fill="#045A2F"/>
<path d="M20.6897 38.7931H18.1035V41.3793H20.6897V38.7931Z" fill="#045A2F"/>
<path d="M25.8621 38.7931H23.2759V41.3793H25.8621V38.7931Z" fill="#045A2F"/>
<path d="M28.4483 38.7931H25.8621V41.3793H28.4483V38.7931Z" fill="#045A2F"/>
<path d="M33.6207 38.7931H31.0345V41.3793H33.6207V38.7931Z" fill="#045A2F"/>
<path d="M36.2069 38.7931H33.6207V41.3793H36.2069V38.7931Z" fill="#045A2F"/>
<path d="M41.3793 38.7931H38.7931V41.3793H41.3793V38.7931Z" fill="#045A2F"/>
<path d="M46.5517 38.7931H43.9655V41.3793H46.5517V38.7931Z" fill="#045A2F"/>
<path d="M49.1379 38.7931H46.5517V41.3793H49.1379V38.7931Z" fill="#045A2F"/>
<path d="M54.3103 38.7931H51.7241V41.3793H54.3103V38.7931Z" fill="#045A2F"/>
<path d="M56.8966 38.7931H54.3103V41.3793H56.8966V38.7931Z" fill="#045A2F"/>
<path d="M62.069 38.7931H59.4828V41.3793H62.069V38.7931Z" fill="#045A2F"/>
<path d="M67.2414 38.7931H64.6552V41.3793H67.2414V38.7931Z" fill="#045A2F"/>
<path d="M69.8276 38.7931H67.2414V41.3793H69.8276V38.7931Z" fill="#045A2F"/>
<path d="M75 38.7931H72.4138V41.3793H75V38.7931Z" fill="#045A2F"/>
<path d="M5.17241 41.3793H2.58621V43.9655H5.17241V41.3793Z" fill="#045A2F"/>
<path d="M10.3448 41.3793H7.75862V43.9655H10.3448V41.3793Z" fill="#045A2F"/>
<path d="M15.5172 41.3793H12.931V43.9655H15.5172V41.3793Z" fill="#045A2F"/>
<path d="M18.1035 41.3793H15.5172V43.9655H18.1035V41.3793Z" fill="#045A2F"/>
<path d="M20.6897 41.3793H18.1035V43.9655H20.6897V41.3793Z" fill="#045A2F"/>
<path d="M23.2759 41.3793H20.6897V43.9655H23.2759V41.3793Z" fill="#045A2F"/>
<path d="M25.8621 41.3793H23.2759V43.9655H25.8621V41.3793Z" fill="#045A2F"/>
<path d="M31.0345 41.3793H28.4483V43.9655H31.0345V41.3793Z" fill="#045A2F"/>
<path d="M36.2069 41.3793H33.6207V43.9655H36.2069V41.3793Z" fill="#045A2F"/>
<path d="M46.5517 41.3793H43.9655V43.9655H46.5517V41.3793Z" fill="#045A2F"/>
<path d="M49.1379 41.3793H46.5517V43.9655H49.1379V41.3793Z" fill="#045A2F"/>
<path d="M59.4828 41.3793H56.8966V43.9655H59.4828V41.3793Z" fill="#045A2F"/>
<path d="M64.6552 41.3793H62.069V43.9655H64.6552V41.3793Z" fill="#045A2F"/>
<path d="M69.8276 41.3793H67.2414V43.9655H69.8276V41.3793Z" fill="#045A2F"/>
<path d="M72.4138 41.3793H69.8276V43.9655H72.4138V41.3793Z" fill="#045A2F"/>
<path d="M2.58621 43.9655H0V46.5517H2.58621V43.9655Z" fill="#045A2F"/>
<path d="M5.17241 43.9655H2.58621V46.5517H5.17241V43.9655Z" fill="#045A2F"/>
<path d="M7.75862 43.9655H5.17241V46.5517H7.75862V43.9655Z" fill="#045A2F"/>
<path d="M20.6897 43.9655H18.1035V46.5517H20.6897V43.9655Z" fill="#045A2F"/>
<path d="M28.4483 43.9655H25.8621V46.5517H28.4483V43.9655Z" fill="#045A2F"/>
<path d="M33.6207 43.9655H31.0345V46.5517H33.6207V43.9655Z" fill="#045A2F"/>
<path d="M36.2069 43.9655H33.6207V46.5517H36.2069V43.9655Z" fill="#045A2F"/>
<path d="M41.3793 43.9655H38.7931V46.5517H41.3793V43.9655Z" fill="#045A2F"/>
<path d="M43.9655 43.9655H41.3793V46.5517H43.9655V43.9655Z" fill="#045A2F"/>
<path d="M46.5517 43.9655H43.9655V46.5517H46.5517V43.9655Z" fill="#045A2F"/>
<path d="M49.1379 43.9655H46.5517V46.5517H49.1379V43.9655Z" fill="#045A2F"/>
<path d="M51.7241 43.9655H49.1379V46.5517H51.7241V43.9655Z" fill="#045A2F"/>
<path d="M64.6552 43.9655H62.069V46.5517H64.6552V43.9655Z" fill="#045A2F"/>
<path d="M72.4138 43.9655H69.8276V46.5517H72.4138V43.9655Z" fill="#045A2F"/>
<path d="M2.58621 46.5517H0V49.1379H2.58621V46.5517Z" fill="#045A2F"/>
<path d="M5.17241 46.5517H2.58621V49.1379H5.17241V46.5517Z" fill="#045A2F"/>
<path d="M7.75862 46.5517H5.17241V49.1379H7.75862V46.5517Z" fill="#045A2F"/>
<path d="M10.3448 46.5517H7.75862V49.1379H10.3448V46.5517Z" fill="#045A2F"/>
<path d="M12.931 46.5517H10.3448V49.1379H12.931V46.5517Z" fill="#045A2F"/>
<path d="M15.5172 46.5517H12.931V49.1379H15.5172V46.5517Z" fill="#045A2F"/>
<path d="M18.1035 46.5517H15.5172V49.1379H18.1035V46.5517Z" fill="#045A2F"/>
<path d="M20.6897 46.5517H18.1035V49.1379H20.6897V46.5517Z" fill="#045A2F"/>
<path d="M23.2759 46.5517H20.6897V49.1379H23.2759V46.5517Z" fill="#045A2F"/>
<path d="M38.7931 46.5517H36.2069V49.1379H38.7931V46.5517Z" fill="#045A2F"/>
<path d="M41.3793 46.5517H38.7931V49.1379H41.3793V46.5517Z" fill="#045A2F"/>
<path d="M51.7241 46.5517H49.1379V49.1379H51.7241V46.5517Z" fill="#045A2F"/>
<path d="M62.069 46.5517H59.4828V49.1379H62.069V46.5517Z" fill="#045A2F"/>
<path d="M64.6552 46.5517H62.069V49.1379H64.6552V46.5517Z" fill="#045A2F"/>
<path d="M72.4138 46.5517H69.8276V49.1379H72.4138V46.5517Z" fill="#045A2F"/>
<path d="M75 46.5517H72.4138V49.1379H75V46.5517Z" fill="#045A2F"/>
<path d="M2.58621 49.1379H0V51.7241H2.58621V49.1379Z" fill="#045A2F"/>
<path d="M7.75862 49.1379H5.17241V51.7241H7.75862V49.1379Z" fill="#045A2F"/>
<path d="M10.3448 49.1379H7.75862V51.7241H10.3448V49.1379Z" fill="#045A2F"/>
<path d="M15.5172 49.1379H12.931V51.7241H15.5172V49.1379Z" fill="#045A2F"/>
<path d="M20.6897 49.1379H18.1035V51.7241H20.6897V49.1379Z" fill="#045A2F"/>
<path d="M23.2759 49.1379H20.6897V51.7241H23.2759V49.1379Z" fill="#045A2F"/>
<path d="M28.4483 49.1379H25.8621V51.7241H28.4483V49.1379Z" fill="#045A2F"/>
<path d="M33.6207 49.1379H31.0345V51.7241H33.6207V49.1379Z" fill="#045A2F"/>
<path d="M36.2069 49.1379H33.6207V51.7241H36.2069V49.1379Z" fill="#045A2F"/>
<path d="M43.9655 49.1379H41.3793V51.7241H43.9655V49.1379Z" fill="#045A2F"/>
<path d="M51.7241 49.1379H49.1379V51.7241H51.7241V49.1379Z" fill="#045A2F"/>
<path d="M54.3103 49.1379H51.7241V51.7241H54.3103V49.1379Z" fill="#045A2F"/>
<path d="M56.8966 49.1379H54.3103V51.7241H56.8966V49.1379Z" fill="#045A2F"/>
<path d="M62.069 49.1379H59.4828V51.7241H62.069V49.1379Z" fill="#045A2F"/>
<path d="M67.2414 49.1379H64.6552V51.7241H67.2414V49.1379Z" fill="#045A2F"/>
<path d="M69.8276 49.1379H67.2414V51.7241H69.8276V49.1379Z" fill="#045A2F"/>
<path d="M72.4138 49.1379H69.8276V51.7241H72.4138V49.1379Z" fill="#045A2F"/>
<path d="M5.17241 51.7241H2.58621V54.3103H5.17241V51.7241Z" fill="#045A2F"/>
<path d="M7.75862 51.7241H5.17241V54.3103H7.75862V51.7241Z" fill="#045A2F"/>
<path d="M18.1035 51.7241H15.5172V54.3103H18.1035V51.7241Z" fill="#045A2F"/>
<path d="M20.6897 51.7241H18.1035V54.3103H20.6897V51.7241Z" fill="#045A2F"/>
<path d="M25.8621 51.7241H23.2759V54.3103H25.8621V51.7241Z" fill="#045A2F"/>
<path d="M33.6207 51.7241H31.0345V54.3103H33.6207V51.7241Z" fill="#045A2F"/>
<path d="M36.2069 51.7241H33.6207V54.3103H36.2069V51.7241Z" fill="#045A2F"/>
<path d="M38.7931 51.7241H36.2069V54.3103H38.7931V51.7241Z" fill="#045A2F"/>
<path d="M41.3793 51.7241H38.7931V54.3103H41.3793V51.7241Z" fill="#045A2F"/>
<path d="M43.9655 51.7241H41.3793V54.3103H43.9655V51.7241Z" fill="#045A2F"/>
<path d="M49.1379 51.7241H46.5517V54.3103H49.1379V51.7241Z" fill="#045A2F"/>
<path d="M51.7241 51.7241H49.1379V54.3103H51.7241V51.7241Z" fill="#045A2F"/>
<path d="M54.3103 51.7241H51.7241V54.3103H54.3103V51.7241Z" fill="#045A2F"/>
<path d="M56.8966 51.7241H54.3103V54.3103H56.8966V51.7241Z" fill="#045A2F"/>
<path d="M59.4828 51.7241H56.8966V54.3103H59.4828V51.7241Z" fill="#045A2F"/>
<path d="M62.069 51.7241H59.4828V54.3103H62.069V51.7241Z" fill="#045A2F"/>
<path d="M64.6552 51.7241H62.069V54.3103H64.6552V51.7241Z" fill="#045A2F"/>
<path d="M72.4138 51.7241H69.8276V54.3103H72.4138V51.7241Z" fill="#045A2F"/>
<path d="M75 51.7241H72.4138V54.3103H75V51.7241Z" fill="#045A2F"/>
<path d="M23.2759 54.3103H20.6897V56.8966H23.2759V54.3103Z" fill="#045A2F"/>
<path d="M33.6207 54.3103H31.0345V56.8966H33.6207V54.3103Z" fill="#045A2F"/>
<path d="M36.2069 54.3103H33.6207V56.8966H36.2069V54.3103Z" fill="#045A2F"/>
<path d="M38.7931 54.3103H36.2069V56.8966H38.7931V54.3103Z" fill="#045A2F"/>
<path d="M41.3793 54.3103H38.7931V56.8966H41.3793V54.3103Z" fill="#045A2F"/>
<path d="M43.9655 54.3103H41.3793V56.8966H43.9655V54.3103Z" fill="#045A2F"/>
<path d="M46.5517 54.3103H43.9655V56.8966H46.5517V54.3103Z" fill="#045A2F"/>
<path d="M54.3103 54.3103H51.7241V56.8966H54.3103V54.3103Z" fill="#045A2F"/>
<path d="M64.6552 54.3103H62.069V56.8966H64.6552V54.3103Z" fill="#045A2F"/>
<path d="M69.8276 54.3103H67.2414V56.8966H69.8276V54.3103Z" fill="#045A2F"/>
<path d="M2.58621 56.8966H0V59.4828H2.58621V56.8966Z" fill="#045A2F"/>
<path d="M5.17241 56.8966H2.58621V59.4828H5.17241V56.8966Z" fill="#045A2F"/>
<path d="M7.75862 56.8966H5.17241V59.4828H7.75862V56.8966Z" fill="#045A2F"/>
<path d="M10.3448 56.8966H7.75862V59.4828H10.3448V56.8966Z" fill="#045A2F"/>
<path d="M12.931 56.8966H10.3448V59.4828H12.931V56.8966Z" fill="#045A2F"/>
<path d="M15.5172 56.8966H12.931V59.4828H15.5172V56.8966Z" fill="#045A2F"/>
<path d="M18.1035 56.8966H15.5172V59.4828H18.1035V56.8966Z" fill="#045A2F"/>
<path d="M25.8621 56.8966H23.2759V59.4828H25.8621V56.8966Z" fill="#045A2F"/>
<path d="M31.0345 56.8966H28.4483V59.4828H31.0345V56.8966Z" fill="#045A2F"/>
<path d="M33.6207 56.8966H31.0345V59.4828H33.6207V56.8966Z" fill="#045A2F"/>
<path d="M46.5517 56.8966H43.9655V59.4828H46.5517V56.8966Z" fill="#045A2F"/>
<path d="M49.1379 56.8966H46.5517V59.4828H49.1379V56.8966Z" fill="#045A2F"/>
<path d="M51.7241 56.8966H49.1379V59.4828H51.7241V56.8966Z" fill="#045A2F"/>
<path d="M54.3103 56.8966H51.7241V59.4828H54.3103V56.8966Z" fill="#045A2F"/>
<path d="M59.4828 56.8966H56.8966V59.4828H59.4828V56.8966Z" fill="#045A2F"/>
<path d="M64.6552 56.8966H62.069V59.4828H64.6552V56.8966Z" fill="#045A2F"/>
<path d="M67.2414 56.8966H64.6552V59.4828H67.2414V56.8966Z" fill="#045A2F"/>
<path d="M2.58621 59.4828H0V62.069H2.58621V59.4828Z" fill="#045A2F"/>
<path d="M18.1035 59.4828H15.5172V62.069H18.1035V59.4828Z" fill="#045A2F"/>
<path d="M23.2759 59.4828H20.6897V62.069H23.2759V59.4828Z" fill="#045A2F"/>
<path d="M31.0345 59.4828H28.4483V62.069H31.0345V59.4828Z" fill="#045A2F"/>
<path d="M41.3793 59.4828H38.7931V62.069H41.3793V59.4828Z" fill="#045A2F"/>
<path d="M46.5517 59.4828H43.9655V62.069H46.5517V59.4828Z" fill="#045A2F"/>
<path d="M51.7241 59.4828H49.1379V62.069H51.7241V59.4828Z" fill="#045A2F"/>
<path d="M54.3103 59.4828H51.7241V62.069H54.3103V59.4828Z" fill="#045A2F"/>
<path d="M64.6552 59.4828H62.069V62.069H64.6552V59.4828Z" fill="#045A2F"/>
<path d="M72.4138 59.4828H69.8276V62.069H72.4138V59.4828Z" fill="#045A2F"/>
<path d="M75 59.4828H72.4138V62.069H75V59.4828Z" fill="#045A2F"/>
<path d="M2.58621 62.069H0V64.6552H2.58621V62.069Z" fill="#045A2F"/>
<path d="M7.75862 62.069H5.17241V64.6552H7.75862V62.069Z" fill="#045A2F"/>
<path d="M10.3448 62.069H7.75862V64.6552H10.3448V62.069Z" fill="#045A2F"/>
<path d="M12.931 62.069H10.3448V64.6552H12.931V62.069Z" fill="#045A2F"/>
<path d="M18.1035 62.069H15.5172V64.6552H18.1035V62.069Z" fill="#045A2F"/>
<path d="M31.0345 62.069H28.4483V64.6552H31.0345V62.069Z" fill="#045A2F"/>
<path d="M38.7931 62.069H36.2069V64.6552H38.7931V62.069Z" fill="#045A2F"/>
<path d="M54.3103 62.069H51.7241V64.6552H54.3103V62.069Z" fill="#045A2F"/>
<path d="M56.8966 62.069H54.3103V64.6552H56.8966V62.069Z" fill="#045A2F"/>
<path d="M59.4828 62.069H56.8966V64.6552H59.4828V62.069Z" fill="#045A2F"/>
<path d="M62.069 62.069H59.4828V64.6552H62.069V62.069Z" fill="#045A2F"/>
<path d="M64.6552 62.069H62.069V64.6552H64.6552V62.069Z" fill="#045A2F"/>
<path d="M67.2414 62.069H64.6552V64.6552H67.2414V62.069Z" fill="#045A2F"/>
<path d="M69.8276 62.069H67.2414V64.6552H69.8276V62.069Z" fill="#045A2F"/>
<path d="M75 62.069H72.4138V64.6552H75V62.069Z" fill="#045A2F"/>
<path d="M2.58621 64.6552H0V67.2414H2.58621V64.6552Z" fill="#045A2F"/>
<path d="M7.75862 64.6552H5.17241V67.2414H7.75862V64.6552Z" fill="#045A2F"/>
<path d="M10.3448 64.6552H7.75862V67.2414H10.3448V64.6552Z" fill="#045A2F"/>
<path d="M12.931 64.6552H10.3448V67.2414H12.931V64.6552Z" fill="#045A2F"/>
<path d="M18.1035 64.6552H15.5172V67.2414H18.1035V64.6552Z" fill="#045A2F"/>
<path d="M25.8621 64.6552H23.2759V67.2414H25.8621V64.6552Z" fill="#045A2F"/>
<path d="M28.4483 64.6552H25.8621V67.2414H28.4483V64.6552Z" fill="#045A2F"/>
<path d="M33.6207 64.6552H31.0345V67.2414H33.6207V64.6552Z" fill="#045A2F"/>
<path d="M38.7931 64.6552H36.2069V67.2414H38.7931V64.6552Z" fill="#045A2F"/>
<path d="M41.3793 64.6552H38.7931V67.2414H41.3793V64.6552Z" fill="#045A2F"/>
<path d="M46.5517 64.6552H43.9655V67.2414H46.5517V64.6552Z" fill="#045A2F"/>
<path d="M62.069 64.6552H59.4828V67.2414H62.069V64.6552Z" fill="#045A2F"/>
<path d="M67.2414 64.6552H64.6552V67.2414H67.2414V64.6552Z" fill="#045A2F"/>
<path d="M69.8276 64.6552H67.2414V67.2414H69.8276V64.6552Z" fill="#045A2F"/>
<path d="M2.58621 67.2414H0V69.8276H2.58621V67.2414Z" fill="#045A2F"/>
<path d="M7.75862 67.2414H5.17241V69.8276H7.75862V67.2414Z" fill="#045A2F"/>
<path d="M10.3448 67.2414H7.75862V69.8276H10.3448V67.2414Z" fill="#045A2F"/>
<path d="M12.931 67.2414H10.3448V69.8276H12.931V67.2414Z" fill="#045A2F"/>
<path d="M18.1035 67.2414H15.5172V69.8276H18.1035V67.2414Z" fill="#045A2F"/>
<path d="M28.4483 67.2414H25.8621V69.8276H28.4483V67.2414Z" fill="#045A2F"/>
<path d="M31.0345 67.2414H28.4483V69.8276H31.0345V67.2414Z" fill="#045A2F"/>
<path d="M38.7931 67.2414H36.2069V69.8276H38.7931V67.2414Z" fill="#045A2F"/>
<path d="M54.3103 67.2414H51.7241V69.8276H54.3103V67.2414Z" fill="#045A2F"/>
<path d="M56.8966 67.2414H54.3103V69.8276H56.8966V67.2414Z" fill="#045A2F"/>
<path d="M62.069 67.2414H59.4828V69.8276H62.069V67.2414Z" fill="#045A2F"/>
<path d="M67.2414 67.2414H64.6552V69.8276H67.2414V67.2414Z" fill="#045A2F"/>
<path d="M69.8276 67.2414H67.2414V69.8276H69.8276V67.2414Z" fill="#045A2F"/>
<path d="M2.58621 69.8276H0V72.4138H2.58621V69.8276Z" fill="#045A2F"/>
<path d="M18.1035 69.8276H15.5172V72.4138H18.1035V69.8276Z" fill="#045A2F"/>
<path d="M28.4483 69.8276H25.8621V72.4138H28.4483V69.8276Z" fill="#045A2F"/>
<path d="M31.0345 69.8276H28.4483V72.4138H31.0345V69.8276Z" fill="#045A2F"/>
<path d="M33.6207 69.8276H31.0345V72.4138H33.6207V69.8276Z" fill="#045A2F"/>
<path d="M38.7931 69.8276H36.2069V72.4138H38.7931V69.8276Z" fill="#045A2F"/>
<path d="M41.3793 69.8276H38.7931V72.4138H41.3793V69.8276Z" fill="#045A2F"/>
<path d="M43.9655 69.8276H41.3793V72.4138H43.9655V69.8276Z" fill="#045A2F"/>
<path d="M49.1379 69.8276H46.5517V72.4138H49.1379V69.8276Z" fill="#045A2F"/>
<path d="M51.7241 69.8276H49.1379V72.4138H51.7241V69.8276Z" fill="#045A2F"/>
<path d="M56.8966 69.8276H54.3103V72.4138H56.8966V69.8276Z" fill="#045A2F"/>
<path d="M59.4828 69.8276H56.8966V72.4138H59.4828V69.8276Z" fill="#045A2F"/>
<path d="M64.6552 69.8276H62.069V72.4138H64.6552V69.8276Z" fill="#045A2F"/>
<path d="M72.4138 69.8276H69.8276V72.4138H72.4138V69.8276Z" fill="#045A2F"/>
<path d="M75 69.8276H72.4138V72.4138H75V69.8276Z" fill="#045A2F"/>
<path d="M2.58621 72.4138H0V75H2.58621V72.4138Z" fill="#045A2F"/>
<path d="M5.17241 72.4138H2.58621V75H5.17241V72.4138Z" fill="#045A2F"/>
<path d="M7.75862 72.4138H5.17241V75H7.75862V72.4138Z" fill="#045A2F"/>
<path d="M10.3448 72.4138H7.75862V75H10.3448V72.4138Z" fill="#045A2F"/>
<path d="M12.931 72.4138H10.3448V75H12.931V72.4138Z" fill="#045A2F"/>
<path d="M15.5172 72.4138H12.931V75H15.5172V72.4138Z" fill="#045A2F"/>
<path d="M18.1035 72.4138H15.5172V75H18.1035V72.4138Z" fill="#045A2F"/>
<path d="M25.8621 72.4138H23.2759V75H25.8621V72.4138Z" fill="#045A2F"/>
<path d="M33.6207 72.4138H31.0345V75H33.6207V72.4138Z" fill="#045A2F"/>
<path d="M38.7931 72.4138H36.2069V75H38.7931V72.4138Z" fill="#045A2F"/>
<path d="M46.5517 72.4138H43.9655V75H46.5517V72.4138Z" fill="#045A2F"/>
<path d="M49.1379 72.4138H46.5517V75H49.1379V72.4138Z" fill="#045A2F"/>
<path d="M51.7241 72.4138H49.1379V75H51.7241V72.4138Z" fill="#045A2F"/>
<path d="M56.8966 72.4138H54.3103V75H56.8966V72.4138Z" fill="#045A2F"/>
<path d="M67.2414 72.4138H64.6552V75H67.2414V72.4138Z" fill="#045A2F"/>
<path d="M69.8276 72.4138H67.2414V75H69.8276V72.4138Z" fill="#045A2F"/>
</svg>
