<?xml version="1.0" encoding="utf-8"?>
<!-- Generator: Adobe Illustrator 21.0.0, SVG Export Plug-In . SVG Version: 6.00 Build 0)  -->
<svg version="1.1" id="Слой_1" xmlns="http://www.w3.org/2000/svg" xmlns:xlink="http://www.w3.org/1999/xlink" x="0px"
     y="0px"
     viewBox="0 0 16 16" style="enable-background:new 0 0 16 16;" xml:space="preserve">
<style type="text/css">
	.st0 {
        fill-rule: evenodd;
        clip-rule: evenodd;
        fill: url(#SVGID_1_);
    }

    .st1 {
        fill-rule: evenodd;
        clip-rule: evenodd;
        fill: url(#SVGID_2_);
    }

    .st2 {
        fill: #231F20;
    }
</style>
    <g>
	<linearGradient id="SVGID_1_" gradientUnits="userSpaceOnUse" x1="0.204" y1="11.6059" x2="15.796" y2="11.6059">
		<stop offset="0" style="stop-color:#D79041"/>
        <stop offset="0.1" style="stop-color:#FBAF33"/>
        <stop offset="0.3" style="stop-color:#FFC132"/>
        <stop offset="0.4469" style="stop-color:#FFD72E"/>
        <stop offset="0.65" style="stop-color:#FFF229"/>
        <stop offset="0.7347" style="stop-color:#FBE82C"/>
        <stop offset="0.8808" style="stop-color:#F0CC33"/>
        <stop offset="1" style="stop-color:#E6B03B"/>
	</linearGradient>
        <path class="st0"
              d="M0.2,9.8c0.3,1.3,0.9,2.5,1.7,3.4c3.9,0.3,8.4,0.3,12.1,0c0.8-1,1.4-2.1,1.7-3.4C10.5,9.9,5.4,9.9,0.2,9.8z"/>
        <linearGradient id="SVGID_2_" gradientUnits="userSpaceOnUse" x1="0.2709" y1="4.205" x2="15.7291" y2="4.205">
		<stop offset="0" style="stop-color:#D79041"/>
            <stop offset="0.1" style="stop-color:#FBAF33"/>
            <stop offset="0.3" style="stop-color:#FFC132"/>
            <stop offset="0.4469" style="stop-color:#FFD72E"/>
            <stop offset="0.65" style="stop-color:#FFF229"/>
            <stop offset="0.7347" style="stop-color:#FBE82C"/>
            <stop offset="0.8808" style="stop-color:#F0CC33"/>
            <stop offset="1" style="stop-color:#E6B03B"/>
	</linearGradient>
        <path class="st1"
              d="M15.7,6c-0.3-1.2-0.9-2.3-1.8-3.3C10.1,2.4,5.9,2.4,2,2.7C1.2,3.6,0.6,4.7,0.3,6C5.5,5.9,10.5,5.9,15.7,6z"/>
        <path class="st2" d="M14,2.7c0,0-0.1-0.1-0.1-0.1c-0.1-0.1-0.2-0.2-0.3-0.3c-0.1-0.1-0.2-0.2-0.3-0.2c-0.1-0.1-0.2-0.2-0.4-0.3
		c-0.1-0.1-0.2-0.1-0.3-0.2c-0.1-0.1-0.3-0.2-0.4-0.3c-0.1-0.1-0.2-0.1-0.3-0.2c-0.1-0.1-0.3-0.1-0.4-0.2c-0.1-0.1-0.2-0.1-0.3-0.1
		c-0.1-0.1-0.3-0.1-0.4-0.2c-0.1,0-0.2-0.1-0.3-0.1c-0.2-0.1-0.3-0.1-0.5-0.1c-0.1,0-0.2-0.1-0.3-0.1c-0.2,0-0.4-0.1-0.6-0.1
		c-0.1,0-0.2,0-0.3,0C8.6,0,8.3,0,8,0S7.4,0,7.2,0c-0.1,0-0.2,0-0.3,0c-0.2,0-0.4,0.1-0.5,0.1C6.2,0.2,6.1,0.2,6,0.3
		c-0.2,0-0.3,0.1-0.5,0.1c-0.1,0-0.2,0.1-0.3,0.1C5.1,0.6,4.9,0.6,4.8,0.7c-0.1,0-0.2,0.1-0.3,0.2C4.3,0.9,4.2,1,4,1.1
		C3.9,1.1,3.8,1.2,3.8,1.2C3.6,1.3,3.5,1.4,3.4,1.5C3.3,1.6,3.2,1.6,3.1,1.7C3,1.8,2.9,1.9,2.7,2C2.7,2.1,2.6,2.1,2.5,2.2
		C2.4,2.3,2.3,2.4,2.1,2.6c0,0-0.1,0.1-0.1,0.1C5.9,2.4,10.1,2.4,14,2.7z"/>
        <path class="st2" d="M1.9,13.2c0,0.1,0.1,0.1,0.2,0.2c0.1,0.1,0.2,0.2,0.3,0.4c0.1,0.1,0.2,0.1,0.2,0.2c0.1,0.1,0.2,0.2,0.4,0.3
		c0.1,0.1,0.2,0.1,0.3,0.2c0.1,0.1,0.3,0.2,0.4,0.3c0.1,0.1,0.2,0.1,0.3,0.2c0.1,0.1,0.3,0.1,0.4,0.2c0.1,0.1,0.2,0.1,0.3,0.2
		c0.1,0.1,0.3,0.1,0.4,0.2c0.1,0,0.2,0.1,0.3,0.1c0.2,0.1,0.3,0.1,0.5,0.1c0.1,0,0.2,0.1,0.3,0.1c0.2,0,0.4,0.1,0.6,0.1
		c0.1,0,0.2,0,0.3,0c0.3,0,0.6,0,0.9,0c0.3,0,0.6,0,0.9,0c0.1,0,0.2,0,0.3,0c0.2,0,0.4-0.1,0.6-0.1c0.1,0,0.2-0.1,0.3-0.1
		c0.2,0,0.3-0.1,0.5-0.1c0.1,0,0.2-0.1,0.3-0.1c0.2-0.1,0.3-0.1,0.4-0.2c0.1,0,0.2-0.1,0.3-0.1c0.1-0.1,0.3-0.1,0.4-0.2
		c0.1-0.1,0.2-0.1,0.3-0.2c0.1-0.1,0.3-0.2,0.4-0.3c0.1-0.1,0.2-0.1,0.3-0.2c0.1-0.1,0.3-0.2,0.4-0.3c0.1-0.1,0.2-0.1,0.2-0.2
		c0.1-0.1,0.3-0.3,0.4-0.4c0,0,0.1-0.1,0.1-0.1C10.3,13.5,5.9,13.5,1.9,13.2z"/>
        <path class="st2" d="M15.9,7.1c0-0.1,0-0.2,0-0.3c0-0.2-0.1-0.4-0.1-0.6c0-0.1,0-0.1,0-0.2C10.5,5.9,5.5,5.9,0.3,6c0,0,0,0.1,0,0.1
		C0.2,6.3,0.1,6.6,0.1,6.8c0,0.1,0,0.2,0,0.3C0,7.4,0,7.7,0,8c0,0.3,0,0.6,0,0.9c0,0.1,0,0.2,0,0.2c0,0.2,0.1,0.4,0.1,0.6
		c0,0,0,0,0,0.1c5.1,0.1,10.3,0.2,15.6,0c0,0,0-0.1,0-0.1c0-0.2,0.1-0.4,0.1-0.5c0-0.1,0-0.2,0-0.3c0-0.3,0-0.6,0-0.9
		C16,7.7,16,7.4,15.9,7.1z"/>
</g>
</svg>
