<svg width="20" height="20" xmlns="http://www.w3.org/2000/svg" xmlns:svg="http://www.w3.org/2000/svg"
     preserveAspectRatio="xMidYMid meet">
    <g>
        <title>Layer 1</title>
        <g id="svg_3" stroke="null"
           transform="matrix(0.5762045886163168,0,0,0.5707039135193774,-3.1466283031998943,-8.041849887807404) ">
            <g id="svg_18" stroke="null">
                <path id="svg_19" stroke="null"
                      d="m24.693236,14.67267l0,17.5l0,0l0,0c0,0.8 -0.6,1.4 -1.4,1.4l-2.1,0l0,0c-0.1,0 -0.2,0.1 -0.2,0.2l0,14.7c0.5,0 1,0.1 1.6,0.1c9.4,0 17,-7.6 17,-17c0,-8.7 -6.5,-15.9 -14.9,-16.9zm-0.4,26.2c-1.2,0 -2.1,-1 -2.1,-2.1c0,-1.2 1,-2.1 2.1,-2.1c1.2,0 2.1,1 2.1,2.1c0.1,1.1 -0.9,2.1 -2.1,2.1zm5,0c-1.2,0 -2.1,-1 -2.1,-2.1c0,-1.2 1,-2.1 2.1,-2.1c1.2,0 2.1,1 2.1,2.1c0,1.1 -0.9,2.1 -2.1,2.1zm5,0c-1.2,0 -2.1,-1 -2.1,-2.1c0,-1.2 1,-2.1 2.1,-2.1c1.2,0 2.1,1 2.1,2.1c0,1.1 -0.9,2.1 -2.1,2.1z"
                      fill="#00985F"/>
                <g id="svg_20" stroke="null" transform="matrix(1,0,0,1,-1.49823,25.6363) "/>
                <path id="svg_21" stroke="null"
                      d="m23.226046,14.57267c-9.4,0 -17,7.6 -17,17c0,8.2 5.7,15 13.4,16.6l0,-15.3l0,0c0,-0.7 0.6,-1.3 1.3,-1.4l0,0l0.7,0l1.4,0c0.1,0 0.2,-0.1 0.2,-0.2l0,-16.7l0,0zm-3.3,14c-1.2,0 -2.1,-1 -2.1,-2.1c0,-1.2 1,-2.1 2.1,-2.1c1.2,0 2.1,1 2.1,2.1c0,1.1 -0.9,2.1 -2.1,2.1z"
                      fill="#00985F"/>
            </g>
        </g>
    </g>
</svg>