<svg width="94" height="50" viewBox="0 0 94 50" fill="none" xmlns="http://www.w3.org/2000/svg">
<path d="M79.7 18.5996V31.4996H84.2V22.3996H88.5V31.4996H92.9V18.5996H79.7ZM71.3 17.8996H75.4L77.5 14.0996H70.9C66.1 14.1996 62.9 18.2996 62.9 23.3996C62.9 29.3996 66.3 31.7996 70.4 31.7996C74.6 31.7996 77.7 29.0996 77.6 25.3996C77.5 22.4996 75.1 19.6996 71.9 19.6996C70.1 19.6996 68.4 20.2996 67.3 21.3996C67.4 19.2996 69.2 17.8996 71.3 17.8996ZM70.2 22.9996C71.8 22.9996 72.9 24.2996 72.9 25.7996C72.9 27.2996 71.7 28.4996 70.1 28.4996C68.9 28.4996 67.5 27.3996 67.5 25.7996C67.5 24.2996 68.7 22.9996 70.2 22.9996ZM55.8 21.9996C57.7 21.8996 59.3 22.9996 59.3 22.9996L61 19.9996C59.5 18.8996 58 18.2996 56 18.2996C51.6 18.2996 48.5 21.8996 48.5 24.9996C48.5 28.6996 51.8 31.7996 55.9 31.7996C57.7 31.7996 59.5 31.1996 60.9 30.0996L59.3 26.9996C59.3 26.9996 57.8 27.9996 55.8 27.9996C54.5 27.9996 52.8 26.8996 52.8 24.9996C52.8 23.0996 54.5 21.9996 55.8 21.9996Z" fill="#1B0A40"/>
<path d="M13 25L6.5 28.8L0.5 39.3L25.2 25H13Z" fill="#874691"/>
<path d="M31.7001 14.2002L25.2001 18.0002L19.1001 28.5002L43.8001 14.2002H31.7001Z" fill="#DA1844"/>
<path d="M25.2001 10.5L19.1001 0V50L25.2001 39.5V10.5Z" fill="#F9B229"/>
<path d="M19.1001 0L25.2001 10.5L31.7001 14.2H43.9001L19.1001 0Z" fill="#F07F1A"/>
<path d="M19.1001 21.5V50L25.2001 39.5V32L19.1001 21.5Z" fill="#72B22C"/>
<path d="M31.7001 35.7998L25.2001 39.4998L19.1001 49.9998L43.8001 35.7998H31.7001Z" fill="#00743E"/>
<path d="M0.5 10.7998V39.2998L6.6 28.7998V21.1998L0.5 10.7998Z" fill="#5F5A94"/>
<path d="M19.1 21.4998L0.5 10.7998L6.6 21.1998L31.7 35.7998H43.9L19.1 21.4998Z" fill="#0D90CD"/>
</svg>
