<?xml version="1.0" encoding="utf-8"?>
<!-- Generator: Adobe Illustrator 22.0.0, SVG Export Plug-In . SVG Version: 6.00 Build 0)  -->
<svg version="1.1" id="Layer_1" xmlns="http://www.w3.org/2000/svg" xmlns:xlink="http://www.w3.org/1999/xlink" x="0px"
     y="0px"
     viewBox="0 0 291.8 92.1" style="enable-background:new 0 0 291.8 92.1;" xml:space="preserve">
<style type="text/css">
	.st0 {
        fill: #2394BC;
    }

    .st1 {
        fill: #EFC75E;
    }
</style>
    <g>
	<g>
		<g>
			<path class="st0" d="M119.3,0.5l-14.6,91.1H128l14.6-91.1C142.7,0.5,119.3,0.5,119.3,0.5z M189.9,37.6c-8.2-4-13.2-6.8-13.2-10.9
				c0.1-3.8,4.2-7.6,13.5-7.6c7.6-0.2,13.2,1.6,17.4,3.4l2.1,0.9l3.2-19.1c-4.6-1.8-12-3.8-21-3.8c-23.1,0-39.4,12-39.5,29.2
				c-0.2,12.7,11.7,19.7,20.5,23.9c9.1,4.3,12.1,7.1,12.1,11c-0.1,5.9-7.3,8.6-14.1,8.6c-9.3,0-14.4-1.4-22-4.7l-3.1-1.4l-3.3,19.8
				c5.5,2.4,15.6,4.6,26.1,4.7c24.6,0,40.5-11.8,40.7-30.2C209.6,51.6,203.4,43.9,189.9,37.6z M272.9,0.7h-18.1
				c-5.6,0-9.8,1.6-12.2,7.3l-34.8,83.5h24.6l6.8-18.1h27.5l3.5,18.2h21.7L272.9,0.7z M245.9,55.3c0.5,0,9.4-29.5,9.4-29.5l7.1,29.5
				C262.5,55.3,250.5,55.3,245.9,55.3z M85.1,0.5L62.1,62.4l-2.5-12.2c-4.2-14.1-17.5-29.4-32.4-37l21,78.3H73l36.8-91L85.1,0.5
				L85.1,0.5z"/>
		</g>
	</g>
        <path class="st1" d="M51.9,12.2C50.1,5.3,44.4,0.6,36.7,0.5H0.4L0,2.2c28.3,7,52.1,28.5,59.8,48.7L51.9,12.2z"/>
</g>
</svg>
